<?xml version="1.0" encoding="UTF-8" standalone="no"?>
<svg
   version="1.0"
   width="615.65833pt"
   height="615.8288pt"
   viewBox="0 0 615.65833 615.8288"
   preserveAspectRatio="xMidYMid"
   id="svg625"
   xmlns="http://www.w3.org/2000/svg"
   xmlns:svg="http://www.w3.org/2000/svg">
  <defs
     id="defs625" />
  <g
     id="g630"
     style="display:inline;fill:currentColor"
     transform="translate(-61.916653,-62.19883)">
    <path
       d="m 440.3,100.9 c -8.7,4.2 -9.6,5 -8.3,7.1 0.7,1.1 2.4,0.7 9.2,-2.5 10,-4.6 10,-4.6 8.4,-6.7 -1.2,-1.6 -1.9,-1.5 -9.3,2.1 z"
       id="path166"
       style="fill:currentColor;stroke:none;stroke-width:0.1" />
    <path
       d="m 402.1,98.9 c -1.1,0.7 -0.1,2.5 4.8,8.5 5.5,6.6 6.5,7.4 8.2,6.3 1.5,-0.9 1.6,-1.4 0.6,-2.7 -7.1,-8.6 -11,-13 -11.5,-13 -0.4,0 -1.3,0.4 -2.1,0.9 z"
       id="path167"
       style="fill:currentColor;stroke:none;stroke-width:0.1" />
    <path
       d="m 251.3,102.4 c -3,1.4 -7.4,7.6 -5.4,7.6 0.5,0 1.6,0.2 2.3,0.5 0.9,0.4 1.9,-0.4 2.5,-1.8 1.3,-2.8 3.9,-3.8 7.1,-2.6 3,1.1 2.8,3.4 -1.2,12 -3.5,7.6 -3.7,8.9 -0.8,8.9 2,0 9.2,-15 9.2,-19.2 0,-4.9 -7.8,-8 -13.7,-5.4 z"
       id="path168"
       style="fill:currentColor;stroke:none;stroke-width:0.1" />
    <path
       d="m 277.7,107.2 c -6.1,11.2 -5.9,10.6 -3.8,11.7 1.7,1 2.4,0.2 6.5,-7.5 2.6,-4.7 4.4,-8.9 4.1,-9.4 -1.4,-2.3 -3.5,-0.6 -6.8,5.2 z"
       id="path169"
       style="fill:currentColor;stroke:none;stroke-width:0.1" />
    <path
       d="m 422.1,101.9 c -1.1,0.7 -0.3,2.4 3.9,8.3 3,4 5.5,7.5 5.7,7.7 0.1,0.2 1.2,0 2.3,-0.5 1.9,-0.8 1.7,-1.3 -3.5,-8.7 -3.1,-4.2 -5.9,-7.7 -6.3,-7.7 -0.4,0 -1.3,0.4 -2.1,0.9 z"
       id="path170"
       style="fill:currentColor;stroke:none;stroke-width:0.1" />
    <path
       d="m 475.5,103.5 c -2.8,2.7 -3,4.2 -1.3,8 1.2,2.6 1.7,2.9 4.2,1.9 1.2,-0.5 1.3,-1 0.4,-3 -1.4,-3.1 0.4,-5.4 4.4,-5.4 2.7,0 3.2,0.7 7,8.7 2.2,4.9 4.2,8.9 4.3,9.1 0.1,0.1 1.1,-0.1 2.3,-0.5 1.9,-0.8 1.9,-1.1 -1.9,-9.3 -2.1,-4.7 -4.8,-9.3 -6,-10.2 -3.3,-2.8 -10.4,-2.4 -13.4,0.7 z"
       id="path171"
       style="fill:currentColor;stroke:none;stroke-width:0.1" />
    <path
       d="m 301.9,105.7 c -1.1,1.2 -0.9,1.8 1,3.3 1.9,1.3 2.2,2.3 1.7,4.3 -1,4.1 -4.4,4.3 -11.2,0.9 -8.6,-4.3 -10.1,-4.6 -11.3,-2.4 -0.9,1.6 0,2.2 7.7,5.5 4.8,2.1 9.5,3.7 10.4,3.7 5.9,0 10.9,-6.9 8.8,-12 -1.5,-3.6 -5.4,-5.5 -7.1,-3.3 z"
       id="path172"
       style="fill:currentColor;stroke:none;stroke-width:0.1" />
    <path
       d="m 442.3,106.8 c -1.6,1 7.5,16.2 10.9,18.2 5.6,3.1 14.9,-2.6 13.4,-8.2 -0.9,-3.7 -2.1,-4.9 -4,-4.2 -1.3,0.5 -1.5,1.4 -1,4 0.5,2.9 0.3,3.5 -1.9,4.5 -1.4,0.6 -3.2,0.9 -4,0.6 -0.8,-0.3 -3.4,-3.9 -5.8,-8.1 -4.4,-7.5 -5.3,-8.3 -7.6,-6.8 z"
       id="path173"
       style="fill:currentColor;stroke:none;stroke-width:0.1" />
    <path
       d="m 497.8,109.7 c -3.6,0.9 -1.4,4 3.2,4.5 2.6,0.2 3.8,1 5,3.1 1.4,2.6 1.3,2.9 -0.2,4 -0.9,0.7 -5.2,2.1 -9.7,3.1 -8.3,1.9 -8.7,2.1 -7.2,4.5 0.7,1.1 2.5,0.9 10.4,-0.9 5.3,-1.2 10.2,-2.9 10.8,-3.7 1.6,-1.9 1.6,-6.7 -0.1,-9.8 -0.7,-1.3 -2.8,-3.1 -4.5,-4 -3.3,-1.5 -4.5,-1.6 -7.7,-0.8 z"
       id="path174"
       style="fill:currentColor;stroke:none;stroke-width:0.1" />
    <path
       d="m 232.2,112 c -3.2,2 -5.2,5.4 -5.2,9 0,2.9 3.2,6 6.5,6.3 3.8,0.3 4.6,-2.5 1,-4.1 -3.2,-1.5 -3.4,-5.6 -0.2,-7.6 2,-1.4 3.1,-1.3 11.4,0.8 l 9.1,2.3 0.6,-2 c 0.3,-1.2 0.4,-2.2 0.3,-2.3 -0.6,-0.4 -17.8,-4.4 -18.9,-4.4 -0.7,0 -2.8,0.9 -4.6,2 z"
       id="path175"
       style="fill:currentColor;stroke:none;stroke-width:0.1" />
    <path
       d="m 415.6,115.1 c -6.9,4.6 -7.6,5.3 -6.3,6.6 1.4,1.4 2.4,1 9.1,-3.3 5.1,-3.1 7.5,-5.3 7.1,-6.2 -0.3,-0.7 -0.5,-1.6 -0.5,-1.8 0,-1.1 -2.2,0 -9.4,4.7 z"
       id="path176"
       style="fill:currentColor;stroke:none;stroke-width:0.1" />
    <path
       d="m 479,115.1 c -11.1,3.6 -14,7.2 -10.9,13.2 2.5,4.8 8.9,7.3 12.7,4.9 2.2,-1.4 0.3,-4.4 -2.4,-3.8 -3,0.8 -5.4,-0.2 -6.4,-2.8 -1.3,-3.6 0.6,-5.2 9,-7.6 6.2,-1.8 8,-2.7 8,-4.1 0,-1 -0.3,-2 -0.7,-2.2 -0.5,-0.2 -4.6,0.8 -9.3,2.4 z"
       id="path177"
       style="fill:currentColor;stroke:none;stroke-width:0.1" />
    <path
       d="m 391,117.5 c -2.8,3 -3.1,7.7 -0.5,10.5 2.6,2.9 4.7,1 3.2,-3 -1.3,-3.5 0.3,-6 3.9,-6 1.7,0 3.6,1.8 7.1,6.5 4.7,6.3 6.5,7.6 7.8,5.5 0.8,-1.2 -8.8,-14.5 -11.1,-15.4 -3.6,-1.4 -8.1,-0.6 -10.4,1.9 z"
       id="path178"
       style="fill:currentColor;stroke:none;stroke-width:0.1" />
    <path
       d="m 434.3,119.2 c -7.7,4.4 -7.8,4.5 -6.4,6.6 1.1,1.8 17.2,-6.6 16.8,-8.8 -0.4,-2.6 -3,-2.1 -10.4,2.2 z"
       id="path179"
       style="fill:currentColor;stroke:none;stroke-width:0.1" />
    <path
       d="m 241.1,119.3 c -0.5,1.2 -1.8,4.8 -3,8 -2.9,7.8 -2.7,11.1 0.5,13.6 5.1,4 13.1,1.5 14.9,-4.6 0.9,-3.4 -2.6,-3.5 -4.7,-0.1 -1.9,3 -3.7,3.4 -6.9,1.8 -2.5,-1.4 -2.4,-2.2 1.1,-11.3 1.7,-4.3 3,-8 3,-8.1 0,-0.2 -0.9,-0.6 -2.1,-0.9 -1.4,-0.4 -2.2,0.1 -2.8,1.6 z"
       id="path180"
       style="fill:currentColor;stroke:none;stroke-width:0.1" />
    <path
       d="m 263,118.5 c 0,0.8 0,1.7 0,2 0,0.3 3.8,2 8.5,3.9 8.1,3.1 8.6,3.2 9.5,1.5 1.2,-2.2 1.3,-2.1 -8.9,-5.9 -9.6,-3.5 -9.1,-3.4 -9.1,-1.5 z"
       id="path181"
       style="fill:currentColor;stroke:none;stroke-width:0.1" />
    <path
       d="m 285.9,120.2 c -0.7,1.3 -2.5,4.7 -4.1,7.7 -2.9,5.3 -3.1,8.1 -0.6,8.1 2,0 10,-16.3 8.5,-17.2 -1.9,-1.2 -2.5,-1 -3.8,1.4 z"
       id="path182"
       style="fill:currentColor;stroke:none;stroke-width:0.1" />
    <path
       d="m 418.5,120 c -1,1.6 9.3,16 11,15.4 2.2,-0.9 1.9,-1.8 -3.1,-9.4 -4.5,-6.6 -6.5,-8.2 -7.9,-6 z"
       id="path183"
       style="fill:currentColor;stroke:none;stroke-width:0.1" />
    <path
       d="m 480.7,120.8 c -1,0.2 -1.7,0.7 -1.5,1 0.2,0.4 1.9,4.4 3.7,8.9 2.6,6.1 4,8.3 5.3,8.3 2.5,0 2.3,-1.6 -1.2,-10.1 -3.5,-8.3 -3.8,-8.7 -6.3,-8.1 z"
       id="path184"
       style="fill:currentColor;stroke:none;stroke-width:0.1" />
    <path
       d="m 516.3,121.1 c -5.4,1.6 -6.5,11 -1.4,11.7 2.1,0.3 2.2,0.1 1.7,-2.6 -0.8,-3.6 1.1,-5.5 5.1,-5 2.4,0.3 3.1,1.1 4.5,5.3 1,2.7 2.2,6.9 2.8,9.2 0.9,3.5 1.5,4.3 3.4,4.3 h 2.4 l -2.5,-8.7 c -3.1,-11.1 -3.7,-12.2 -7.8,-13.9 -3.8,-1.6 -3.8,-1.6 -8.2,-0.3 z"
       id="path185"
       style="fill:currentColor;stroke:none;stroke-width:0.1" />
    <path
       d="m 299.5,124.5 c -2.9,2.8 -3.1,4.3 -0.9,5.2 0.9,0.3 2.1,-0.3 3,-1.6 0.8,-1.1 2.3,-2.1 3.3,-2.1 1.7,0 5.1,2.9 5.1,4.4 0,0.3 -1.8,3.9 -4,7.8 -3.1,5.4 -3.8,7.4 -2.9,8.4 0.6,0.8 1.5,1.2 1.9,0.9 1.7,-1 9,-15.5 9,-17.7 -0.1,-6.8 -9.6,-10.3 -14.5,-5.3 z"
       id="path186"
       style="fill:currentColor;stroke:none;stroke-width:0.1" />
    <path
       d="m 437.8,124.1 c -1.4,0.8 -1,1.9 2.9,8.9 4.7,8.2 5,8.5 7,7.2 0.9,-0.6 0.2,-2.8 -2.8,-8.5 -4.5,-8.6 -4.8,-8.9 -7.1,-7.6 z"
       id="path187"
       style="fill:currentColor;stroke:none;stroke-width:0.1" />
    <path
       d="m 266.5,129.2 c -5.2,12.7 -5.6,13.8 -4,13.8 0.8,0 1.7,0.1 2,0.2 0.3,0.2 2.2,-3.5 4.2,-8.1 2.9,-6.8 3.3,-8.5 2.2,-9.2 -2.2,-1.4 -2.6,-1.1 -4.4,3.3 z"
       id="path188"
       style="fill:currentColor;stroke:none;stroke-width:0.1" />
    <path
       d="m 244.4,127.4 c -0.4,0.9 -0.5,1.9 -0.2,2.1 0.4,0.4 17.3,5.5 18.2,5.5 0.2,0 0.6,-0.9 0.9,-2 0.4,-1.7 -0.4,-2.2 -6.1,-3.9 -11.5,-3.4 -12.1,-3.5 -12.8,-1.7 z"
       id="path189"
       style="fill:currentColor;stroke:none;stroke-width:0.1" />
    <path
       d="m 287.6,128.6 c -0.8,2.1 -1.7,1.4 8.1,6.3 7.6,3.8 8.3,4 9.2,2.3 0.8,-1.6 -0.1,-2.4 -7.4,-6 -4.6,-2.3 -8.5,-4.2 -8.8,-4.2 -0.3,0 -0.8,0.7 -1.1,1.6 z"
       id="path190"
       style="fill:currentColor;stroke:none;stroke-width:0.1" />
    <path
       d="m 446.8,127.7 c -1.4,0.3 -1.6,0.9 -0.8,2.3 0.8,1.5 1.7,1.8 4.4,1.3 2.8,-0.4 3.6,-0.1 4.6,1.7 1.8,3.4 0.7,4.7 -7.5,8.7 -7.8,3.9 -8,4 -6.7,6.1 0.7,1 2.4,0.5 7.8,-1.9 11.3,-5.2 13.3,-8.3 9.9,-14.8 -2,-3.9 -5.7,-5 -11.7,-3.4 z"
       id="path191"
       style="fill:currentColor;stroke:none;stroke-width:0.1" />
    <path
       d="m 412.7,132.6 c -6.4,4.4 -7.9,6.5 -5.7,7.9 0.5,0.3 4.3,-1.8 8.4,-4.6 5.9,-4.1 7.3,-5.6 6.4,-6.6 -1.5,-1.9 -1.7,-1.8 -9.1,3.3 z"
       id="path192"
       style="fill:currentColor;stroke:none;stroke-width:0.1" />
    <path
       d="m 498.9,129.7 c -2.4,0.6 3.6,18.3 6.3,18.3 1,0 1.8,-0.5 1.8,-1.2 0,-1.9 -5.4,-17.8 -6,-17.7 -0.3,0.1 -1.2,0.3 -2.1,0.6 z"
       id="path193"
       style="fill:currentColor;stroke:none;stroke-width:0.1" />
    <path
       d="m 533.7,134 c 0.4,1.4 1.4,2 3.4,2 4.3,0 8,6.6 4.7,8.6 -0.6,0.4 -4.9,1.1 -9.5,1.5 -4.7,0.4 -8.7,0.9 -8.9,1.2 -0.3,0.2 -0.2,1.2 0.2,2.1 0.5,1.4 1.8,1.5 9.3,1 10.6,-0.8 12.9,-1.6 14.1,-5 2.4,-6.1 -3.1,-13.4 -10,-13.4 -3.3,0 -3.7,0.3 -3.3,2 z"
       id="path194"
       style="fill:currentColor;stroke:none;stroke-width:0.1" />
    <path
       d="m 513.8,134.7 c -7.9,1.5 -8.4,1.8 -6.9,4.1 0.6,1.1 2.1,1.1 7.2,0.3 3.5,-0.6 7.8,-1.4 9.5,-1.6 2.6,-0.5 3.1,-0.9 2.7,-2.5 -0.6,-2.3 -1.8,-2.4 -12.5,-0.3 z"
       id="path195"
       style="fill:currentColor;stroke:none;stroke-width:0.1" />
    <path
       d="m 270.7,134.6 c -0.4,0.4 -0.7,1.3 -0.7,1.9 0,1.5 15.6,7.9 17,7 2.3,-1.4 0.6,-3.2 -5.8,-5.7 -9.4,-3.9 -9.7,-3.9 -10.5,-3.2 z"
       id="path196"
       style="fill:currentColor;stroke:none;stroke-width:0.1" />
    <path
       d="m 464.4,135.2 c -2,0.9 -4.4,4.7 -4.4,6.8 0,0.5 0.4,2 1,3.4 1.4,3.7 4.3,2.4 3.5,-1.5 -0.5,-2.3 -0.1,-3.1 2,-4.5 3.8,-2.5 5.3,-1.2 8.8,7.9 2.8,7.1 4.7,9.2 6.2,6.7 0.9,-1.5 -5.5,-16.9 -7.8,-18.5 -2.4,-1.7 -6.2,-1.8 -9.3,-0.3 z"
       id="path197"
       style="fill:currentColor;stroke:none;stroke-width:0.1" />
    <path
       d="m 226.6,136.7 c -1,2.5 -0.7,3.3 1.3,3.3 2.5,0 4.4,2.5 3.6,4.9 -1.2,3.9 -2.8,4.3 -12,3 -7.3,-1 -8.8,-1 -9.6,0.2 -0.5,0.8 -0.9,1.7 -0.9,2 0,0.4 4.5,1.2 10,1.9 9,1.1 10.3,1.1 12.5,-0.4 4.2,-2.7 5.8,-9.4 3.3,-12.9 -1.9,-2.5 -7.5,-3.9 -8.2,-2 z"
       id="path198"
       style="fill:currentColor;stroke:none;stroke-width:0.1" />
    <path
       d="m 495.5,138.5 c -0.5,0.2 -4.2,1.3 -8.2,2.4 -6.2,1.8 -7,2.4 -6.6,4.1 0.3,1.1 0.6,2 0.7,2 0.2,0 2.2,-0.7 4.7,-1.5 2.4,-0.7 6.3,-1.9 8.7,-2.5 3.1,-0.8 4.2,-1.6 4.2,-3 0,-1.9 -1.1,-2.3 -3.5,-1.5 z"
       id="path199"
       style="fill:currentColor;stroke:none;stroke-width:0.1" />
    <path
       d="m 203.7,147.2 c -2.1,10.3 -2.1,10.8 0.2,10.8 1.5,0 2.1,-1.5 3.6,-8.3 1,-4.5 2,-8.8 2.2,-9.5 0.3,-0.7 -0.4,-1.2 -1.9,-1.2 -2.2,0 -2.5,0.7 -4.1,8.2 z"
       id="path200"
       style="fill:currentColor;stroke:none;stroke-width:0.1" />
    <path
       d="m 515.8,140.5 c -0.6,0.6 3.6,17.6 4.7,19.5 1.5,2.5 7.1,4 10.9,2.9 4,-1.1 5.9,-3.7 5.4,-7.7 -0.2,-2 -0.9,-2.8 -2.7,-3 -2,-0.3 -2.3,-0.1 -1.8,1.9 0.8,3 -0.9,4.9 -4.4,4.9 -3.4,0 -4.1,-1.2 -6.5,-11.3 -1.3,-5.8 -2.2,-7.7 -3.4,-7.7 -0.9,0 -1.9,0.2 -2.2,0.5 z"
       id="path201"
       style="fill:currentColor;stroke:none;stroke-width:0.1" />
    <path
       d="m 250.1,143.4 c -6.9,3.8 -6.4,12.9 0.8,15.4 2.5,0.9 3,0.8 3.4,-0.9 0.4,-1.4 -0.1,-2.3 -1.7,-2.9 -2.8,-1 -3.6,-2.8 -2.5,-5.8 1.1,-2.8 4.6,-2.9 12.5,-0.2 6,2.1 8.4,2 8.4,-0.3 0,-0.7 -3.4,-2.4 -8.3,-4 -9.5,-3.1 -9.4,-3.1 -12.6,-1.3 z"
       id="path202"
       style="fill:currentColor;stroke:none;stroke-width:0.1" />
    <path
       d="m 272.1,150.2 c -2.5,6.3 -2.9,8.3 -1.9,9 0.7,0.4 1.6,0.8 1.9,0.8 0.9,0 6.9,-16.3 6.3,-17.2 -1.5,-2.4 -3.5,0 -6.3,7.4 z"
       id="path203"
       style="fill:currentColor;stroke:none;stroke-width:0.1" />
    <path
       d="m 490.7,145.7 c -1.1,0.3 -1.6,1 -1.3,2 0.3,0.8 1.6,4.8 2.7,8.9 1.7,5.7 2.6,7.4 4.1,7.4 1,0 1.8,-0.5 1.8,-1.2 0,-1.3 -4.9,-17.9 -5.3,-17.7 -0.1,0.1 -1,0.3 -2,0.6 z"
       id="path204"
       style="fill:currentColor;stroke:none;stroke-width:0.1" />
    <path
       d="m 505.5,149.7 c -7.8,1.6 -8.8,2.2 -8,4.5 0.6,1.4 1.3,1.4 7.3,0.1 3.7,-0.7 7.7,-1.6 9,-1.9 1.4,-0.3 2.2,-1.2 2.2,-2.4 0,-2.3 -0.8,-2.4 -10.5,-0.3 z"
       id="path205"
       style="fill:currentColor;stroke:none;stroke-width:0.1" />
    <path
       d="m 231.3,154.2 c -1.1,1.3 -2.3,3.3 -2.6,4.5 -0.4,1.9 -0.1,2.3 1.7,2.3 1.2,0 2.5,-0.9 3.1,-2.3 0.6,-1.3 2.1,-2.3 3.7,-2.5 4.3,-0.5 4.9,2 2.8,11.6 l -1.8,8.3 2,-0.3 c 1.7,-0.2 2.5,-1.7 3.9,-7.8 2.4,-9.8 2.3,-10.7 -0.6,-13.5 -3.2,-3.3 -9.3,-3.4 -12.2,-0.3 z"
       id="path206"
       style="fill:currentColor;stroke:none;stroke-width:0.1" />
    <path
       d="m 215.4,156.9 c -0.3,2 -1,5.2 -1.5,7.1 -1.4,5.6 -1.1,8 1,8 1.5,0 2.1,-1.2 3,-6.3 0.7,-3.4 1.4,-7.4 1.7,-8.8 0.5,-2.1 0.1,-2.7 -1.5,-3.2 -1.7,-0.4 -2.1,0.1 -2.7,3.2 z"
       id="path207"
       style="fill:currentColor;stroke:none;stroke-width:0.1" />
    <path
       d="m 479.8,156.6 c -6.7,2.1 -7.5,2.7 -7.1,4.5 0.3,1.1 1.1,1.8 1.7,1.6 0.6,-0.2 4.5,-1.5 8.6,-2.8 4.1,-1.3 7.6,-2.4 7.8,-2.5 0.7,-0.4 -1.2,-3.4 -2.2,-3.4 -0.6,0.1 -4.5,1.2 -8.8,2.6 z"
       id="path208"
       style="fill:currentColor;stroke:none;stroke-width:0.1" />
    <path
       d="m 506.5,155.9 c -0.3,0.6 0.2,4.8 1.1,9.5 1.4,7.1 2,8.6 3.6,8.6 2.2,0 2.2,-0.4 0.2,-10.8 -1.6,-7.7 -3.1,-10 -4.9,-7.3 z"
       id="path209"
       style="fill:currentColor;stroke:none;stroke-width:0.1" />
    <path
       d="m 193,161.8 c 0,1.8 0.9,2 9.3,2.4 6,0.3 9.5,0.1 9.9,-0.6 1.9,-2.8 0.6,-3.4 -9.2,-3.5 -9.3,-0.2 -10,-0.1 -10,1.7 z"
       id="path210"
       style="fill:currentColor;stroke:none;stroke-width:0.1" />
    <path
       d="m 220,163.8 c 0,1.5 1.4,2 8.5,3 8.7,1.3 10.5,1.1 10.5,-1.2 0,-0.7 -2.8,-1.7 -7,-2.4 -9.9,-1.7 -12,-1.6 -12,0.6 z"
       id="path211"
       style="fill:currentColor;stroke:none;stroke-width:0.1" />
    <path
       d="m 513,164 c 0,1.5 0.7,2 2.8,2 3.4,0 5.2,1.6 5.2,4.7 0,2.8 -2,3.9 -9.4,4.8 -7.6,0.9 -8.6,1.3 -8.6,3.6 0,1.5 0.5,1.8 2.3,1.4 1.2,-0.3 5.3,-1 9.2,-1.5 8.5,-1.4 10.5,-2.9 10.5,-8.5 0,-5.4 -3.1,-8.5 -8.3,-8.5 -3,0 -3.7,0.4 -3.7,2 z"
       id="path212"
       style="fill:currentColor;stroke:none;stroke-width:0.1" />
    <path
       d="m 172.6,168.2 c -0.3,1.3 -0.6,5.9 -0.6,10.4 0,9.5 1.3,11.4 7.7,11.4 5.1,0 8.1,-2.4 9.2,-7.3 0.8,-3.5 0.7,-3.7 -1.5,-3.7 -1.9,0 -2.4,0.5 -2.4,2.4 0,3.1 -2.2,4.8 -5.7,4.4 l -2.8,-0.3 0.2,-9.8 c 0.2,-8.9 0.1,-9.7 -1.6,-9.7 -1.1,0 -2.1,0.9 -2.5,2.2 z"
       id="path213"
       style="fill:currentColor;stroke:none;stroke-width:0.1" />
    <path
       d="m 199.6,170.6 c -1.1,8.5 -0.8,14.4 0.9,14.4 1.9,0 2.1,-0.5 3.2,-10.8 0.8,-8 0.8,-8.2 -1.3,-8.2 -1.8,0 -2.2,0.8 -2.8,4.6 z"
       id="path214"
       style="fill:currentColor;stroke:none;stroke-width:0.1" />
    <path
       d="m 178,175.2 c 0,2.2 0.3,2.3 8.7,2 10.2,-0.4 11.3,-0.6 11.3,-2.7 0,-1.2 -1.7,-1.5 -10,-1.5 -9.7,0 -10,0.1 -10,2.2 z"
       id="path215"
       style="fill:currentColor;stroke:none;stroke-width:0.1" />
    <path
       d="m 205,174.9 c 0,2.2 1.1,2.5 12.8,3.6 5.7,0.6 6.2,0.4 6.2,-1.4 0,-2 -0.9,-2.3 -13.2,-3.6 -5.4,-0.6 -5.8,-0.5 -5.8,1.4 z"
       id="path216"
       style="fill:currentColor;stroke:none;stroke-width:0.1" />
    <path
       d="m 211.6,183.1 c -0.3,1.7 -0.6,5.8 -0.6,9 0,5.2 0.2,5.9 2,5.9 1.8,0 2,-0.7 2,-5.9 0,-3.2 0.3,-7.3 0.6,-9 0.6,-2.6 0.4,-3.1 -1.3,-3.1 -1.5,0 -2.2,0.9 -2.7,3.1 z"
       id="path217"
       style="fill:currentColor;stroke:none;stroke-width:0.1" />
    <path
       d="m 190.3,187 c -4.5,1.8 -6.1,10.3 -2.7,14.1 2.4,2.7 8.4,2.6 8.4,0 0,-1.4 -0.8,-2.1 -2.7,-2.3 -2.3,-0.2 -2.9,-0.8 -3.1,-3.6 -0.3,-2.7 0.1,-3.4 2.5,-4.3 1.7,-0.6 5.4,-0.8 9.4,-0.4 6,0.5 6.7,0.4 7.2,-1.4 0.4,-1.5 -0.2,-2 -2.5,-2.5 -4.4,-0.9 -13.9,-0.6 -16.5,0.4 z"
       id="path218"
       style="fill:currentColor;stroke:none;stroke-width:0.1" />
    <path
       d="m 590.1,219.7 c -1.2,1.1 -2.3,3.6 -2.7,6 -0.6,3.8 -0.3,4.5 2.4,7.3 3.6,3.5 7.2,4 7.2,1 0,-1.1 -0.7,-2 -1.5,-2 -0.8,0 -2.2,-1.1 -3.1,-2.5 -1.5,-2.3 -1.5,-2.7 0,-5 0.9,-1.4 1.8,-2.5 2.1,-2.5 0.2,0 4.1,1.2 8.6,2.6 6.6,2.1 8.3,2.3 9,1.2 1.5,-2.3 1,-2.7 -7.4,-5.3 -9.8,-3 -11.8,-3.1 -14.6,-0.8 z"
       id="path219"
       style="fill:currentColor;stroke:none;stroke-width:0.1" />
    <path
       d="m 598.5,235.1 c -1.4,7.7 -1.5,9.3 -0.4,10 2.4,1.5 2.6,1.1 4.3,-7.4 2.1,-10.5 2,-11.7 -0.3,-11.7 -1.5,0 -2.1,1.5 -3.6,9.1 z"
       id="path220"
       style="fill:currentColor;stroke:none;stroke-width:0.1" />
    <path
       d="m 574.7,230.2 c -0.9,0.7 -2.1,2.7 -2.6,4.5 -0.8,2.6 -0.6,3.2 0.9,3.6 2.3,0.6 3,0 3,-2.4 0,-2.8 4.7,-3.6 7.1,-1.3 1.8,1.9 1.8,2.1 -0.1,9.4 -2.4,9.3 -2.4,10 -0.1,10 1.5,0 2.3,-1.6 4,-8.4 2.2,-8.9 2.1,-10.7 -1.2,-14.4 -2.3,-2.5 -8.2,-3 -11,-1 z"
       id="path221"
       style="fill:currentColor;stroke:none;stroke-width:0.1" />
    <path
       d="m 610,244.4 c 0,0.7 -1.1,5 -2.3,9.5 -2.3,7.9 -2.3,8.1 -0.5,8.7 1.1,0.3 2.1,0.4 2.2,0.2 0.6,-0.8 4.6,-15.5 4.6,-16.9 0,-0.9 -0.7,-2 -1.6,-2.3 -2.2,-0.8 -2.4,-0.8 -2.4,0.8 z"
       id="path222"
       style="fill:currentColor;stroke:none;stroke-width:0.1" />
    <path
       d="m 588.6,245.6 c -0.4,0.9 -0.5,1.8 -0.4,2 0.2,0.1 4.1,1.6 8.7,3.3 6.5,2.4 8.7,2.8 9.3,1.8 1.6,-2.5 0,-3.4 -15,-8.1 -1.3,-0.5 -2.2,-0.1 -2.6,1 z"
       id="path223"
       style="fill:currentColor;stroke:none;stroke-width:0.1" />
    <path
       d="m 105.9,248.5 c -2.4,1.3 -5.9,6.8 -5.9,9.3 0,0.6 0.4,2.2 1,3.7 0.8,2.2 1.2,2.4 2.9,1.3 1.4,-0.8 1.7,-1.7 1.2,-3.2 -0.4,-1.2 -0.6,-2.8 -0.4,-3.7 0.5,-2 4.7,-4.3 6.6,-3.6 0.8,0.3 2.6,4.4 4.1,9.1 2.7,8.7 3.1,9.2 5.4,7.7 1.1,-0.7 0.8,-2.5 -1.4,-9.6 -3.8,-12.2 -6.8,-14.6 -13.5,-11 z"
       id="path224"
       style="fill:currentColor;stroke:none;stroke-width:0.1" />
    <path
       d="m 591.8,260.7 c -2.6,8.4 -2.5,10.2 0.4,10.3 1.1,0 6,-15.9 5.4,-17.5 -1.3,-3.5 -3.2,-1 -5.8,7.2 z"
       id="path225"
       style="fill:currentColor;stroke:none;stroke-width:0.1" />
    <path
       d="m 572.8,254.8 c -0.5,1.6 0.7,2.3 8.1,4.5 8.3,2.5 10,2.4 10.1,-0.5 0,-0.6 -7.4,-3.1 -16.1,-5.4 -1,-0.3 -1.8,0.3 -2.1,1.4 z"
       id="path226"
       style="fill:currentColor;stroke:none;stroke-width:0.1" />
    <path
       d="m 613.9,254 c -0.1,0.5 -0.2,1.4 -0.3,2 -0.1,0.5 3.7,2.8 8.3,5 6.5,3.2 8.6,3.8 9.2,2.8 1.5,-2.4 1,-2.9 -7.5,-6.9 -9.2,-4.3 -9.5,-4.4 -9.7,-2.9 z"
       id="path227"
       style="fill:currentColor;stroke:none;stroke-width:0.1" />
    <path
       d="m 121.2,255.8 c -0.7,0.5 -1,1.6 -0.6,2.6 0.5,1.3 1.4,1.6 3.5,1.1 2.2,-0.5 3.1,-0.1 4.4,1.9 2.4,3.7 0.9,5.5 -8.3,10 -6.4,3.1 -7.8,4.2 -7.5,5.7 0.7,2.6 1.2,2.5 10.1,-2 9.2,-4.6 10.7,-6.1 10.7,-11.1 0,-5.6 -2.7,-9 -7.3,-9 -2,0 -4.3,0.4 -5,0.8 z"
       id="path228"
       style="fill:currentColor;stroke:none;stroke-width:0.1" />
    <path
       d="m 105,264.1 c -10.1,5.3 -11.5,6.8 -11.5,12.8 0,3.4 0.6,5.5 1.9,7 3.5,3.8 12.6,1.9 11,-2.2 -0.4,-1.2 -1.2,-1.6 -2.3,-1.2 -0.9,0.4 -2.1,0.9 -2.8,1.2 -0.6,0.2 -1.9,-0.7 -2.9,-2.2 -2.6,-4 -0.8,-6.6 8,-11.1 4.9,-2.5 7.6,-4.5 7.6,-5.6 0,-2.9 -1.4,-2.7 -9,1.3 z"
       id="path229"
       style="fill:currentColor;stroke:none;stroke-width:0.1" />
    <path
       d="m 597.3,262.5 c -0.7,2.1 -1,1.8 8.5,5.9 7.7,3.3 8.2,3.4 9.2,1.7 0.8,-1.7 0,-2.3 -7.4,-5.5 -9.7,-4.1 -9.5,-4.1 -10.3,-2.1 z"
       id="path230"
       style="fill:currentColor;stroke:none;stroke-width:0.1" />
    <path
       d="m 616.1,271.5 c -3,8.5 -3.2,9.8 -2.1,12.6 1.3,3.1 5.5,5.9 8.9,5.9 3.3,0 5.1,-1.1 6.6,-4.1 1.4,-2.5 1.3,-2.9 -0.3,-3.8 -1.3,-0.8 -2.1,-0.4 -3.7,1.5 -1.8,2.3 -2.3,2.4 -4.7,1.3 -1.5,-0.6 -2.9,-1.8 -3.2,-2.5 -0.3,-0.8 0.8,-4.9 2.4,-9.1 1.7,-4.3 3,-8.3 3,-8.9 0,-0.9 -2.1,-2.4 -3.4,-2.4 -0.1,0 -1.7,4.3 -3.5,9.5 z"
       id="path231"
       style="fill:currentColor;stroke:none;stroke-width:0.1" />
    <path
       d="m 136.3,265.6 c -2.1,2.1 -2.5,3.2 -2,6.6 0.6,4.7 0.9,5 3.1,4.2 1.3,-0.5 1.5,-1.4 1,-4 -0.5,-2.9 -0.3,-3.5 1.9,-4.5 3.9,-1.8 5.2,-0.7 8.3,7.1 2.7,7 4.2,8.8 6.3,7.6 1.1,-0.7 -4.3,-15 -6.7,-17.9 -2.4,-2.7 -8.7,-2.3 -11.9,0.9 z"
       id="path232"
       style="fill:currentColor;stroke:none;stroke-width:0.1" />
    <path
       d="m 602.1,271.3 c -0.5,1.2 -2,5 -3.5,8.4 -3.1,7.4 -3.1,6.9 -0.7,7.6 2,0.5 2.4,-0.1 7.2,-12.4 1.8,-4.6 1.8,-4.7 -0.2,-5.2 -1.4,-0.4 -2.2,0.1 -2.8,1.6 z"
       id="path233"
       style="fill:currentColor;stroke:none;stroke-width:0.1" />
    <path
       d="m 105.4,270.8 c -1.6,0.9 5.3,18.2 7.1,18.2 2.7,0 2.6,-2.2 -0.7,-10.5 -3.2,-8.3 -4.1,-9.3 -6.4,-7.7 z"
       id="path234"
       style="fill:currentColor;stroke:none;stroke-width:0.1" />
    <path
       d="m 137.8,277.7 c -5.7,2.6 -7.8,4.1 -7.8,5.4 0,2.6 1,2.4 10,-1.7 6.3,-3 7.7,-4 7.3,-5.5 -0.7,-2.4 -0.3,-2.4 -9.5,1.8 z"
       id="path235"
       style="fill:currentColor;stroke:none;stroke-width:0.1" />
    <path
       d="m 122.3,276.6 c -1.3,0.6 -1.1,1.3 3.6,11.7 2.7,6.1 3.3,6.7 5,5.8 1.9,-1.1 1.9,-1.1 -0.1,-5.3 -1.1,-2.3 -2.9,-6.2 -3.9,-8.5 -1.8,-4.3 -2.3,-4.6 -4.6,-3.7 z"
       id="path236"
       style="fill:currentColor;stroke:none;stroke-width:0.1" />
    <path
       d="m 604.6,280.6 c -0.8,2.2 -0.8,2.4 0.9,2.4 0.8,0 1.9,0.9 2.5,2.1 0.9,1.6 0.8,2.6 -0.5,4.5 -0.8,1.3 -1.9,2.4 -2.4,2.4 -0.4,0 -4.2,-1.6 -8.4,-3.5 -4.2,-1.9 -7.8,-3.5 -8.1,-3.5 -0.2,0 -0.6,0.8 -0.8,1.7 -0.3,1.4 1.6,2.7 7.6,5.5 4.3,2.1 8.7,3.8 9.7,3.8 1,0 3,-1.1 4.6,-2.4 3.7,-3.2 3.9,-9.9 0.4,-12.7 -2.8,-2.3 -4.7,-2.4 -5.5,-0.3 z"
       id="path237"
       style="fill:currentColor;stroke:none;stroke-width:0.1" />
    <path
       d="m 113.7,290.5 c -7.9,4.7 -8.3,5 -6.8,7.4 0.7,1.1 2.5,0.4 9,-3.5 7.4,-4.5 9.5,-7.1 6.6,-8.1 -0.6,-0.2 -4.5,1.7 -8.8,4.2 z"
       id="path238"
       style="fill:currentColor;stroke:none;stroke-width:0.1" />
    <path
       d="m 639.2,287.7 c -1.1,1 -2.3,2.8 -2.6,3.9 -0.9,3.1 2.2,4.1 4.1,1.4 1.8,-2.5 4.5,-2.6 6.6,-0.2 2.3,2.6 2.2,3.2 -2.4,12.4 -3.9,7.8 -4,8.2 -2.3,9.5 1.7,1.2 2.2,0.7 6.1,-6.9 2.3,-4.6 4.2,-9.5 4.2,-11 0.1,-4 -1.9,-7.8 -5,-9.4 -3.7,-1.9 -6.2,-1.8 -8.7,0.3 z"
       id="path239"
       style="fill:currentColor;stroke:none;stroke-width:0.1" />
    <path
       d="m 89.6,291 c -2.7,3.3 -3.6,9.9 -1.7,12.9 1.8,2.8 4,-0.5 3.4,-4.8 -0.5,-3.4 -0.2,-4.1 2,-5.6 1.5,-0.9 3.1,-1.4 3.7,-1 0.6,0.4 2.8,4.2 5,8.6 4.1,8 4.9,8.9 6.8,6.6 0.7,-0.9 -0.3,-3.7 -3.6,-10.2 -4.7,-9 -4.7,-9 -8.8,-9.3 -3.6,-0.3 -4.5,0.1 -6.8,2.8 z"
       id="path240"
       style="fill:currentColor;stroke:none;stroke-width:0.1" />
    <path
       d="m 132,295.2 c -9.1,5 -8.5,4.4 -7.4,6.7 0.8,1.8 1.4,1.6 9.1,-2.8 7.2,-4.2 8.1,-5 7,-6.4 -1.1,-1.5 -1.9,-1.3 -8.7,2.5 z"
       id="path241"
       style="fill:currentColor;stroke:none;stroke-width:0.1" />
    <path
       d="m 622.1,293.2 c -4.3,4.5 -3.9,11.4 0.9,14.8 l 2.9,2 0.6,-2.1 c 0.5,-1.4 0,-2.7 -1.4,-4 -2.6,-2.5 -2.7,-4.3 0,-7 2.3,-2.3 1,-2.8 12.7,5 4.4,2.9 5.5,3.2 6.3,2 0.5,-0.8 0.9,-1.7 0.9,-2 0,-0.4 -3.5,-3 -7.8,-5.8 -8.6,-5.6 -12,-6.3 -15.1,-2.9 z"
       id="path242"
       style="fill:currentColor;stroke:none;stroke-width:0.1" />
    <path
       d="m 116.3,295.8 c -1.3,0.8 6.4,16.3 8.4,17 2.9,0.9 2.2,-3.1 -1.7,-10.2 -4.3,-7.8 -4.6,-8.1 -6.7,-6.8 z"
       id="path243"
       style="fill:currentColor;stroke:none;stroke-width:0.1" />
    <path
       d="m 603.5,299.6 c -3,3.2 -3.1,4 -0.8,4.8 1.1,0.5 2.3,-0.1 3.4,-1.5 1.2,-1.7 2.2,-2 4.2,-1.5 5,1.2 4.3,5.4 -2.5,15.3 -2.7,4.1 -2.8,4.2 -0.9,5.3 1.7,0.9 2.5,0.2 6.5,-6.3 5.5,-8.7 5.9,-12.6 2,-16.2 -3.7,-3.4 -8.7,-3.4 -11.9,0.1 z"
       id="path244"
       style="fill:currentColor;stroke:none;stroke-width:0.1" />
    <path
       d="M 91.3,305.6 C 82.9,312 80.7,316.4 83,322 c 2.4,5.8 7.5,7.3 12.4,3.7 1.5,-1.1 1.7,-1.7 0.7,-3.6 -1.1,-1.9 -1.4,-2 -2.7,-0.6 -2.1,2 -3.7,1.9 -5.9,-0.5 -1.1,-1.2 -1.5,-2.8 -1.2,-4.2 0.5,-1.8 7.5,-7.8 13.9,-11.9 1.1,-0.7 0.1,-4.9 -1,-4.9 -0.4,0.1 -4,2.6 -7.9,5.6 z"
       id="path245"
       style="fill:currentColor;stroke:none;stroke-width:0.1" />
    <path
       d="m 133.4,301.4 c -0.5,1.2 7.4,15.6 8.6,15.6 0.3,0 1.1,-0.4 1.8,-0.8 0.9,-0.6 0.1,-2.8 -3,-8.5 -4.1,-7.4 -6.3,-9.2 -7.4,-6.3 z"
       id="path246"
       style="fill:currentColor;stroke:none;stroke-width:0.1" />
    <path
       d="m 630.4,303.8 c -1,2.1 -3.1,5.9 -4.7,8.6 -2.2,3.8 -2.5,5.1 -1.5,5.7 2.2,1.4 2.6,1.1 6.8,-6 5.2,-9.1 5.3,-9.4 3.2,-10.8 -1.6,-0.9 -2.1,-0.6 -3.8,2.5 z"
       id="path247"
       style="fill:currentColor;stroke:none;stroke-width:0.1" />
    <path
       d="m 108.8,309.7 c -6.7,4.8 -7.6,5.8 -6.7,7.5 1.1,2.1 0.9,2.2 10.2,-4.5 7,-5.1 7.5,-5.8 5.4,-7.5 -0.9,-0.8 -3.2,0.4 -8.9,4.5 z"
       id="path248"
       style="fill:currentColor;stroke:none;stroke-width:0.1" />
    <path
       d="m 650.2,308.5 c -0.7,1.4 -0.8,2.5 -0.2,2.5 0.5,0 1.7,1.1 2.6,2.5 1.5,2.3 1.5,2.7 0,5 -0.9,1.4 -2.3,2.5 -3.2,2.5 -0.8,0 -4.4,-2.3 -8,-5 -3.6,-2.8 -6.9,-5 -7.4,-5 -0.7,0 -2.4,3.1 -1.8,3.5 0.2,0.1 3.6,2.7 7.7,5.8 9.9,7.7 13.9,7.5 17.1,-0.7 1.3,-3.6 -0.1,-8.4 -3.4,-11.5 l -2.3,-2.1 z"
       id="path249"
       style="fill:currentColor;stroke:none;stroke-width:0.1" />
    <path
       d="m 128,312.7 c -8.5,5.5 -10,7.2 -10,11.3 0,7.3 7.6,11.5 13,7.2 2,-1.6 2.1,-1.9 0.6,-3.1 -1.3,-1.1 -1.9,-1.1 -3.1,-0.1 -3.4,2.8 -8.4,-3 -5.5,-6.5 0.7,-0.8 3.9,-3.1 7.2,-5.1 3.8,-2.3 5.8,-4.2 5.6,-5.2 -0.5,-2.6 -2,-2.3 -7.8,1.5 z"
       id="path250"
       style="fill:currentColor;stroke:none;stroke-width:0.1" />
    <path
       d="m 94,311.5 c -1,1.2 -0.4,2.9 3.4,9.4 2.6,4.4 5.4,8.2 6.2,8.5 5.2,2 12.3,-1.8 12.5,-6.6 0.2,-4.1 -0.2,-6.3 -1.6,-7.7 -1.2,-1.2 -1.7,-1.2 -3,-0.1 -1.1,0.9 -1.3,1.6 -0.5,2.4 2.9,2.9 -1.3,10.1 -4.8,8 -0.9,-0.6 -3.5,-4.3 -5.7,-8.2 -2.2,-3.9 -4.3,-7.2 -4.6,-7.2 -0.4,0 -1.2,0.7 -1.9,1.5 z"
       id="path251"
       style="fill:currentColor;stroke:none;stroke-width:0.1" />
    <path
       d="m 614.6,316.7 c -0.4,1 -0.1,2 0.7,2.4 0.7,0.5 4.2,2.9 7.7,5.4 4.8,3.6 6.5,4.4 7.1,3.3 1.4,-2.2 1.1,-2.6 -5.8,-7.7 -7.4,-5.5 -8.8,-6 -9.7,-3.4 z"
       id="path252"
       style="fill:currentColor;stroke:none;stroke-width:0.1" />
    <path
       d="m 597.1,320.4 c -0.9,1 -0.1,1.9 3.7,4.4 2.6,1.7 6.1,4 7.9,5.2 3.1,2.1 3.2,2.1 4.2,0.2 0.9,-1.6 0.1,-2.5 -6.1,-6.5 -7.7,-5.2 -8.1,-5.3 -9.7,-3.3 z"
       id="path253"
       style="fill:currentColor;stroke:none;stroke-width:0.1" />
    <path
       d="m 632.1,327.5 c -5.6,8.4 -5.7,8.7 -3.7,10.4 1.1,0.9 2.4,-0.5 6.6,-6.9 4.8,-7.4 5.2,-8.3 3.8,-9.7 -1.5,-1.4 -2.1,-0.8 -6.7,6.2 z"
       id="path254"
       style="fill:currentColor;stroke:none;stroke-width:0.1" />
    <path
       d="m 613.7,331.2 c -4.4,6.5 -5.3,9.8 -2.8,9.8 1,0 6.9,-7.5 10.2,-12.8 1.2,-2 1.2,-2.4 -0.1,-3.2 -0.8,-0.5 -1.7,-1 -2,-0.9 -0.3,0 -2.7,3.2 -5.3,7.1 z"
       id="path255"
       style="fill:currentColor;stroke:none;stroke-width:0.1" />
    <path
       d="m 647.2,330.3 c -2.6,2.7 -2.7,4 -0.8,5.6 1.2,1 1.7,0.8 2.6,-0.8 1.3,-2.6 4.2,-2.7 6.3,-0.3 2.6,2.8 2.1,4.4 -3.7,12.5 -4.8,6.8 -5.2,7.7 -3.8,9 1.4,1.4 2,1 6.2,-4.6 7.6,-10.1 8.5,-13 5.5,-18.7 -2.8,-5.4 -8.6,-6.6 -12.3,-2.7 z"
       id="path256"
       style="fill:currentColor;stroke:none;stroke-width:0.1" />
    <path
       d="m 636.1,332.2 c -0.7,1.1 -1.1,2.1 -0.9,2.2 0.2,0.1 3.5,3 7.4,6.4 6.1,5.2 7.3,6 8.4,4.7 1.5,-1.8 1.3,-2.1 -6.8,-9.3 -6.5,-5.8 -6.9,-6 -8.1,-4 z"
       id="path257"
       style="fill:currentColor;stroke:none;stroke-width:0.1" />
    <path
       d="m 99.3,333.8 c -2,1.5 -2,1.9 -0.8,3.6 1.4,1.8 1.6,1.8 3.3,0.3 1,-0.9 2.3,-1.7 2.9,-1.7 1.4,0 4.3,3.4 4.3,5.1 0,0.7 -3,4.4 -6.7,8.1 -6,6.1 -6.6,6.9 -5.2,8.3 1.4,1.4 2.3,0.8 8.7,-5.9 8.2,-8.5 9,-11.3 4.6,-16.5 -3,-3.6 -7.5,-4.1 -11.1,-1.3 z"
       id="path258"
       style="fill:currentColor;stroke:none;stroke-width:0.1" />
    <path
       d="m 618.4,334.7 c -0.8,1.5 0.2,2.8 6.3,8.1 6.7,5.8 7.3,6.1 8.3,4.3 0.9,-1.7 0.1,-2.8 -6,-8 -3.9,-3.4 -7.2,-6.1 -7.3,-6.1 -0.1,0 -0.7,0.8 -1.3,1.7 z"
       id="path259"
       style="fill:currentColor;stroke:none;stroke-width:0.1" />
    <path
       d="m 118.7,335.8 c -3.3,2 -4.8,6.6 -3.4,10.5 1.1,3.4 2.4,4.2 4.3,2.6 1.3,-1 1.3,-1.5 -0.1,-3.6 -1.5,-2.2 -1.4,-2.5 1,-4.9 3.1,-3.1 3.7,-2.8 10.5,5.4 4.7,5.7 5.4,6.2 6.7,4.9 1.4,-1.3 1,-2.2 -3.7,-7.9 -7.4,-9 -10.1,-10.3 -15.3,-7 z"
       id="path260"
       style="fill:currentColor;stroke:none;stroke-width:0.1" />
    <path
       d="m 633.7,348.7 c -3.1,4.2 -5.7,8.7 -5.7,10 0,3.6 2.2,7.3 5.1,8.9 3.9,1.9 5.4,1.8 8.6,-1 2.4,-2.1 2.6,-2.6 1.4,-4 -1.2,-1.5 -1.6,-1.5 -3.1,-0.1 -0.9,0.8 -2.3,1.5 -3.2,1.5 -1.7,0 -4.8,-3.1 -4.8,-4.8 0,-0.6 2.5,-4.4 5.5,-8.3 4.4,-5.6 5.3,-7.4 4.4,-8.5 -0.6,-0.8 -1.4,-1.4 -1.8,-1.4 -0.4,0 -3.3,3.5 -6.4,7.7 z"
       id="path261"
       style="fill:currentColor;stroke:none;stroke-width:0.1" />
    <path
       d="m 615.8,349.9 c -4.1,5 -5.3,7.2 -4.5,8 0.6,0.6 1.4,1.1 1.9,1.1 0.4,0 3.3,-3.2 6.4,-7.1 4.6,-5.6 5.5,-7.2 4.3,-8 -2.1,-1.3 -2.1,-1.4 -8.1,6 z"
       id="path262"
       style="fill:currentColor;stroke:none;stroke-width:0.1" />
    <path
       d="m 120.5,350.5 c -6.2,5.6 -6.8,6.5 -5.5,7.8 1.3,1.4 2.3,0.9 8.3,-4.6 6,-5.5 6.6,-6.4 5.5,-7.9 -1.2,-1.6 -2,-1.1 -8.3,4.7 z"
       id="path263"
       style="fill:currentColor;stroke:none;stroke-width:0.1" />
    <path
       d="m 656.2,351.2 c -0.9,0.9 -0.7,1.9 0.9,4.4 1.9,3.1 1.9,3.4 0.3,5.9 -0.9,1.4 -2.1,2.5 -2.7,2.5 -0.7,0 -4.2,-3 -7.9,-6.7 -6.2,-6.1 -6.9,-6.6 -8.4,-5.2 -1.4,1.5 -0.9,2.3 5.8,9.3 8.2,8.4 9.9,9 14.7,5 2.7,-2.2 3.1,-3.3 3.1,-7.3 0,-4.3 -2,-9.1 -3.9,-9.1 -0.4,0 -1.2,0.5 -1.9,1.2 z"
       id="path264"
       style="fill:currentColor;stroke:none;stroke-width:0.1" />
    <path
       d="m 88,352.5 c -1.4,1.7 0.4,4.7 7.5,13 3.1,3.6 3.6,3.9 5,2.4 1.4,-1.4 1.1,-2.2 -4.1,-8.5 -3.1,-3.8 -5.9,-7.3 -6.3,-7.7 -0.4,-0.4 -1.4,-0.1 -2.1,0.8 z"
       id="path265"
       style="fill:currentColor;stroke:none;stroke-width:0.1" />
    <path
       d="m 106,353.4 c -1.5,1.9 -0.7,3.2 6.3,11.1 3.9,4.3 4.7,4.8 6.1,3.6 1.4,-1.2 1.1,-2 -3.6,-7.5 -8.1,-9.5 -7.3,-8.9 -8.8,-7.2 z"
       id="path266"
       style="fill:currentColor;stroke:none;stroke-width:0.1" />
    <path
       d="m 620,353.5 c -1.1,1.3 -1,1.9 0.4,3.3 2.2,2.5 2,4.5 -0.5,6.8 -2.3,2.1 -2.2,2.1 -10.2,-4.9 -3.7,-3.2 -6,-4.5 -7.1,-4.1 -2.3,0.9 -2,1.4 5.7,8.3 5.1,4.6 7.5,6.1 9.8,6.1 6.9,0 10.7,-10.1 5.6,-14.9 -2.1,-1.9 -2.5,-2 -3.7,-0.6 z"
       id="path267"
       style="fill:currentColor;stroke:none;stroke-width:0.1" />
    <path
       d="m 101.4,369.6 c -4.4,5.1 -5.5,7 -4.8,8.1 0.5,0.9 1.3,1.6 1.6,1.7 0.4,0 3.4,-3.1 6.7,-6.9 4.3,-5.1 5.7,-7.3 4.9,-8.3 -0.6,-0.6 -1.4,-1.2 -1.8,-1.2 -0.4,0 -3.4,3 -6.6,6.6 z"
       id="path268"
       style="fill:currentColor;stroke:none;stroke-width:0.1" />
    <path
       d="m 119.9,369.1 c -6.4,7.2 -6.4,7.3 -4.6,8.8 1.2,0.9 2.6,-0.2 7.5,-5.7 4.7,-5.2 5.8,-7.2 5,-8 -1.8,-1.8 -2.2,-1.6 -7.9,4.9 z"
       id="path269"
       style="fill:currentColor;stroke:none;stroke-width:0.1" />
    <path
       d="m 106.1,373.4 c -1.1,1.3 -0.8,2.1 1.8,5.1 1.7,1.9 4.7,4.9 6.6,6.7 3.2,2.7 3.8,2.9 5.1,1.7 1.2,-1.3 0.5,-2.3 -5.4,-8.2 -6,-5.9 -7,-6.6 -8.1,-5.3 z"
       id="path270"
       style="fill:currentColor;stroke:none;stroke-width:0.1" />
    <path
       d="m 124,373.5 c -1.5,1.8 -0.3,3.4 7.3,9.8 4.1,3.4 5,3.8 6.2,2.6 1.1,-1.2 0.3,-2.4 -5.5,-7.6 -5.8,-5.4 -7,-6.1 -8,-4.8 z"
       id="path271"
       style="fill:currentColor;stroke:none;stroke-width:0.1" />
    <path
       d="m 120.6,388.1 c -4.4,5.5 -5.6,7.8 -5.6,10.5 0,7.4 9,11.3 13.9,6 3.6,-3.8 0.8,-6.4 -3.1,-2.9 -1.5,1.3 -2.3,1.4 -4.3,0.5 -3.8,-1.8 -3.1,-5 2.5,-11.5 5.4,-6.4 5.7,-6.9 3.6,-8.6 -1,-0.9 -2.5,0.4 -7,6 z"
       id="path272"
       style="fill:currentColor;stroke:none;stroke-width:0.1" />
    <path
       d="m 102.4,389.5 c -5.1,6.8 -5.6,7.8 -4.2,9.1 1.4,1.4 2.1,0.8 7.2,-5.7 3.1,-4 5.6,-7.6 5.6,-7.9 0,-0.4 -0.6,-1.3 -1.4,-1.9 -1.2,-1 -2.5,0.1 -7.2,6.4 z"
       id="path273"
       style="fill:currentColor;stroke:none;stroke-width:0.1" />
    <path
       d="m 107.1,393.4 c -1.2,1.4 -1.1,1.9 0.3,3.4 0.9,1 1.6,2.8 1.6,3.9 0,1.9 -2.8,5.3 -4.4,5.3 -0.4,0 -3.9,-2.8 -7.8,-6.2 -5.5,-5 -7.1,-5.9 -7.8,-4.8 -1.5,2.3 -1.4,2.5 5.8,8.9 8.5,7.6 13.5,8.3 16.7,2 2.2,-4.1 1.8,-8.4 -0.8,-11.5 -2.1,-2.4 -2.4,-2.5 -3.6,-1 z"
       id="path274"
       style="fill:currentColor;stroke:none;stroke-width:0.1" />
    <path
       d="m 600.8,444.1 c -3,1.7 -1,4 2.8,3.3 2.9,-0.5 3.5,-0.3 4.6,2.1 1.7,3.7 0.5,5.1 -7.9,8.8 -7,3.1 -8.9,5.1 -5.9,6.3 2.1,0.8 16.2,-6 17.5,-8.4 3,-5.7 -0.5,-13.2 -6.2,-13.2 -1.8,0 -4,0.5 -4.9,1.1 z"
       id="path275"
       style="fill:currentColor;stroke:none;stroke-width:0.1" />
    <path
       d="m 619,449.4 c -3.7,2.1 -5.4,5.8 -4.7,10.2 0.7,4.4 0.9,4.6 3.1,3.8 1.3,-0.5 1.5,-1.4 1,-3.9 -0.6,-3.6 1.4,-6.5 4.5,-6.5 2.5,0 3.3,1.3 6.6,9.7 2.9,7.6 3.1,7.8 5.4,6.4 1.2,-0.8 0.9,-2.3 -1.9,-9.5 -1.8,-4.7 -3.8,-9 -4.5,-9.6 -2.1,-1.7 -6.9,-2 -9.5,-0.6 z"
       id="path276"
       style="fill:currentColor;stroke:none;stroke-width:0.1" />
    <path
       d="m 586.2,456.8 c -1,0.7 -0.6,2.7 1.9,9 3,7.5 4.9,9.7 6.4,7.3 0.6,-1 -5.6,-17.1 -6.5,-17.1 -0.3,0 -1.1,0.4 -1.8,0.8 z"
       id="path277"
       style="fill:currentColor;stroke:none;stroke-width:0.1" />
    <path
       d="m 618.3,464.3 c -7.7,3.8 -9.7,6 -7.7,8 0.9,0.8 17.4,-7.5 17.4,-8.8 -0.1,-3.2 -1.8,-3.1 -9.7,0.8 z"
       id="path278"
       style="fill:currentColor;stroke:none;stroke-width:0.1" />
    <path
       d="m 602.4,463.6 c -1,0.4 4.5,18.4 5.6,18.4 0.3,0 1.2,-0.5 2,-1 1.3,-0.8 1.1,-2.1 -1.5,-9.5 -2.8,-8 -3.5,-9 -6.1,-7.9 z"
       id="path279"
       style="fill:currentColor;stroke:none;stroke-width:0.1" />
    <path
       d="m 593.3,475.4 c -4.6,1.7 -8.3,3.3 -8.3,3.6 0,0.3 0.4,1.1 0.9,1.9 0.8,1.2 2.1,1 8.3,-1.3 9.2,-3.3 10,-3.9 9.2,-5.9 -0.7,-2 0,-2.2 -10.1,1.7 z"
       id="path280"
       style="fill:currentColor;stroke:none;stroke-width:0.1" />
    <path
       d="m 145.7,479.2 c -2.1,1.6 -3.5,6.5 -2.8,9.7 0.8,3 5.4,6.6 7.5,5.8 2.4,-0.9 1.9,-3.2 -0.9,-4.5 -2.9,-1.3 -3.4,-5.2 -1,-7.2 1.2,-1 3,-0.8 9.6,1 6.8,2 8.2,2.1 8.9,0.9 1.2,-1.9 0.6,-2.3 -7.7,-4.8 -8.2,-2.4 -11.2,-2.6 -13.6,-0.9 z"
       id="path281"
       style="fill:currentColor;stroke:none;stroke-width:0.1" />
    <path
       d="m 610.3,482.8 c -6.2,2.6 -8.3,4 -8.3,5.3 0,2.5 0.7,2.4 10,-1.3 5.6,-2.3 8,-3.8 8,-5 0,-0.9 -0.3,-1.9 -0.7,-2.1 -0.5,-0.2 -4.5,1.1 -9,3.1 z"
       id="path282"
       style="fill:currentColor;stroke:none;stroke-width:0.1" />
    <path
       d="m 595.2,480.9 c -1.1,0.6 -0.9,2.5 1.1,9.7 2.1,7.5 2.7,8.8 4.3,8.6 1.1,-0.2 2,-0.5 2.1,-0.6 0.5,-0.4 -5,-18.6 -5.6,-18.6 -0.3,0 -1.2,0.4 -1.9,0.9 z"
       id="path283"
       style="fill:currentColor;stroke:none;stroke-width:0.1" />
    <path
       d="m 153.3,493.7 c -1.2,4.8 -1.9,9.1 -1.7,9.5 1.3,2.1 3.4,0.4 4.4,-3.5 0.5,-2.3 1.6,-6.3 2.4,-8.9 1.2,-4.1 1.2,-4.7 -0.1,-5.2 -2.6,-1.1 -2.9,-0.7 -5,8.1 z"
       id="path284"
       style="fill:currentColor;stroke:none;stroke-width:0.1" />
    <path
       d="m 128.6,488.3 c -2.2,2.2 -3.6,6.7 -2.2,6.7 0.2,0 1.1,0.3 1.9,0.6 1,0.3 1.7,-0.3 2.1,-2 0.5,-2 1.3,-2.6 3.5,-2.6 5,0 5.7,2 3.8,10.8 -2.1,9.8 -2.1,10.9 0.1,11.4 1.6,0.5 2.1,-0.7 3.7,-8.7 1,-5.1 1.5,-10.4 1.1,-11.8 -0.7,-3.1 -3.8,-5.4 -8.3,-6.3 -2.6,-0.5 -3.7,-0.1 -5.7,1.9 z"
       id="path285"
       style="fill:currentColor;stroke:none;stroke-width:0.1" />
    <path
       d="m 570.4,488.8 c -1.7,1.1 2.7,18 5.1,19.8 3,2.2 8.3,1.7 11,-1.1 3.1,-3.1 3.7,-10.9 0.8,-10.3 -1.2,0.2 -1.9,1.4 -2.1,3.6 -0.2,1.9 -1.1,3.6 -2.3,4.3 -3.4,1.8 -5.6,0.2 -6.8,-4.9 -3.3,-13.1 -3.3,-13 -5.7,-11.4 z"
       id="path286"
       style="fill:currentColor;stroke:none;stroke-width:0.1" />
    <path
       d="m 611.2,488.8 c -1,0.7 -0.8,2.8 1,10.3 1.9,7.8 2.6,9.4 4.1,9.1 1.9,-0.4 2.2,-2.9 0.8,-8.2 -0.6,-1.9 -1.5,-5.4 -2.1,-7.8 -1.1,-4.3 -1.6,-4.8 -3.8,-3.4 z"
       id="path287"
       style="fill:currentColor;stroke:none;stroke-width:0.1" />
    <path
       d="m 584.9,491.8 c -7.3,2.1 -8.6,2.8 -8.2,4.3 0.6,2.3 -0.1,2.3 9.5,-0.3 7.5,-2 10.2,-3.9 8.2,-5.7 -0.5,-0.4 -4.8,0.4 -9.5,1.7 z"
       id="path288"
       style="fill:currentColor;stroke:none;stroke-width:0.1" />
    <path
       d="m 112.8,495.7 c -3.9,4.5 -2.7,12.1 2.4,15.7 5.2,3.7 6.7,0.1 1.8,-4.4 -2.5,-2.3 -2.9,-3.2 -2.1,-5.2 1.2,-3.2 3.6,-3.3 11.4,-0.3 8,3 9.7,3.1 9.7,0.7 0,-1.4 -2.1,-2.6 -8.4,-5 -9.5,-3.6 -12.6,-3.9 -14.8,-1.5 z"
       id="path289"
       style="fill:currentColor;stroke:none;stroke-width:0.1" />
    <path
       d="m 599.7,501.2 c -7.3,2.5 -9,3.5 -10.3,6 -2.1,4 -1.1,9.1 2.3,11.8 2.9,2.3 3.3,2.3 6.7,1.1 3.6,-1.4 2.5,-4.9 -1.5,-4.3 -2.4,0.3 -3,0 -3.9,-2.2 -1.4,-3.7 -0.4,-5.3 4.6,-7.1 2.4,-0.8 6.4,-2.2 9,-3.1 3.1,-1.1 4.4,-2.1 4.2,-3.2 -0.5,-2.4 -1.6,-2.3 -11.1,1 z"
       id="path290"
       style="fill:currentColor;stroke:none;stroke-width:0.1" />
    <path
       d="m 164.6,502.2 c -0.3,0.7 -1,4.6 -1.6,8.7 -1,6.1 -1,7.5 0.1,8.2 0.8,0.5 1.7,0.9 2,0.9 0.6,0 3.1,-14.5 3,-17.5 0,-1.5 -3.1,-1.8 -3.5,-0.3 z"
       id="path291"
       style="fill:currentColor;stroke:none;stroke-width:0.1" />
    <path
       d="m 123.5,503.2 c -1,3.2 -2.6,13.1 -2.7,16.6 -0.1,6.5 4.5,11.2 10.7,11.2 3.4,0 6.5,-3.4 6.5,-6.9 0,-2 -0.6,-3 -2,-3.4 -1.6,-0.4 -2,0 -2,1.9 0,1.4 -0.7,2.7 -1.5,3 -2.3,0.9 -6.5,-0.5 -7.2,-2.3 -0.6,-1.5 1.2,-14.8 2.4,-17.9 0.2,-0.7 -0.5,-1.8 -1.6,-2.4 -1.6,-0.8 -2.2,-0.8 -2.6,0.2 z"
       id="path292"
       style="fill:currentColor;stroke:none;stroke-width:0.1" />
    <path
       d="m 143,504.9 c 0,2.1 1.1,2.5 14.2,5.9 3.3,0.9 3.7,0.8 4.2,-1.1 0.3,-1.2 0.4,-2.1 0.3,-2.2 -0.1,0 -3.3,-0.9 -7.2,-1.8 -3.8,-1 -8,-2 -9.2,-2.3 -1.9,-0.5 -2.3,-0.2 -2.3,1.5 z"
       id="path293"
       style="fill:currentColor;stroke:none;stroke-width:0.1" />
    <path
       d="m 567.8,508.7 c -2,0.5 -2.2,1.2 -1,3.1 0.5,0.7 1.6,1 2.4,0.7 2.1,-0.8 4.8,2.1 4.8,5 0,2.8 -3.2,4.1 -12.7,5.1 -5.4,0.6 -6.3,0.9 -6.3,2.7 0,1.8 0.4,1.9 7,1.3 12.7,-1.3 15.9,-3.1 16,-9.3 0,-4.5 -0.9,-6.2 -4.1,-7.8 -2.9,-1.5 -3.2,-1.6 -6.1,-0.8 z"
       id="path294"
       style="fill:currentColor;stroke:none;stroke-width:0.1" />
    <path
       d="m 168.7,510.9 c -0.5,2.2 -0.7,2.2 11.6,4 4.7,0.7 6,0.5 6.4,-0.6 0.8,-2 -0.1,-2.6 -6.1,-3.4 -3,-0.4 -6.8,-1 -8.4,-1.4 -2.4,-0.5 -3,-0.2 -3.5,1.4 z"
       id="path295"
       style="fill:currentColor;stroke:none;stroke-width:0.1" />
    <path
       d="m 148.6,517.2 c -0.4,3.5 -0.9,7.7 -1.2,9.4 -0.5,2.6 -0.2,3.2 1.5,3.7 2.4,0.6 2.3,0.6 3.9,-10.8 1,-7.8 0.9,-8.5 -1.7,-8.5 -1.5,0 -2,1.1 -2.5,6.2 z"
       id="path296"
       style="fill:currentColor;stroke:none;stroke-width:0.1" />
    <path
       d="m 127.7,514 c -0.6,2.4 -0.2,2.6 11,5.8 7.2,2 7.2,2 7.9,0 0.3,-1.1 0.4,-2.1 0.2,-2.2 -0.1,-0.1 -3.8,-1.2 -8,-2.4 -4.2,-1.2 -8.3,-2.5 -9.1,-2.8 -0.9,-0.3 -1.6,0.3 -2,1.6 z"
       id="path297"
       style="fill:currentColor;stroke:none;stroke-width:0.1" />
    <path
       d="m 174.6,522.1 c -1.5,14.6 0,17.9 7.9,17.9 3.5,0 4.8,-0.5 6.4,-2.6 2.8,-3.5 2.8,-7.4 0.1,-7.4 -1.3,0 -2,0.7 -2,1.8 0,2.4 -1.9,4.2 -4.6,4.2 -3.9,0 -4.7,-2.2 -3.9,-11.5 0.6,-8 0.6,-8.5 -1.3,-8.5 -1.6,0 -2,0.9 -2.6,6.1 z"
       id="path298"
       style="fill:currentColor;stroke:none;stroke-width:0.1" />
    <path
       d="m 550.6,516.8 c -1.6,0.3 -1.8,1 -1.2,4.9 0.3,2.5 0.6,6.5 0.6,8.9 0,3.7 0.3,4.4 2,4.4 1.7,0 2,-0.6 1.9,-4.8 0,-2.6 -0.4,-6.7 -0.7,-9.2 -0.6,-3.7 -1,-4.5 -2.6,-4.2 z"
       id="path299"
       style="fill:currentColor;stroke:none;stroke-width:0.1" />
    <path
       d="m 154,521.5 c 0,1.9 0.9,2.3 7.3,3.4 3.9,0.7 8.2,1.5 9.5,1.8 1.7,0.4 2.2,0.1 2.2,-1.6 0,-2.5 0.2,-2.4 -10.7,-4.3 -8.3,-1.5 -8.3,-1.5 -8.3,0.7 z"
       id="path300"
       style="fill:currentColor;stroke:none;stroke-width:0.1" />
    <path
       d="m 581.5,520.4 c -3.3,1.4 -5.5,5.2 -5.5,9.2 0,2 0.4,2.5 2.2,2.2 1.5,-0.2 2.2,-1 2.2,-3 0.2,-3.3 1.3,-4.5 4.6,-5 3.4,-0.4 4.8,2.9 5.1,11.9 0.3,6.3 0.6,7.3 2.2,7.3 2.6,0 2.9,-1.8 1.9,-11.6 -0.8,-7.2 -1.4,-9.2 -3.2,-10.6 -2.6,-2.1 -5.3,-2.2 -9.5,-0.4 z"
       id="path301"
       style="fill:currentColor;stroke:none;stroke-width:0.1" />
    <path
       d="m 160.6,530.1 c -0.3,1.7 -0.6,6 -0.6,9.4 0,4.9 0.4,6.4 1.6,6.9 0.9,0.4 1.8,0.5 1.9,0.4 0.1,-0.2 0.5,-4.7 0.9,-10.1 0.6,-9.1 0.5,-9.7 -1.3,-9.7 -1.3,0 -2,0.9 -2.5,3.1 z"
       id="path302"
       style="fill:currentColor;stroke:none;stroke-width:0.1" />
    <path
       d="m 563.2,537.5 c 0.3,9.3 0.4,9.5 2.7,9.5 2.3,0 2.4,-0.1 1.8,-6.8 -0.4,-3.7 -0.7,-7.9 -0.7,-9.5 0,-2.1 -0.5,-2.7 -2.1,-2.7 -2,0 -2.1,0.4 -1.7,9.5 z"
       id="path303"
       style="fill:currentColor;stroke:none;stroke-width:0.1" />
    <path
       d="m 596.7,529.7 c -0.4,0.3 -0.7,1.5 -0.7,2.6 0,1.5 0.5,1.8 2.4,1.3 3.9,-1 6.5,4 3.8,7.4 -1.2,1.5 -4.2,2.5 -10.4,3.7 -7.9,1.5 -8.8,1.9 -8.8,3.9 0,2.3 0,2.3 14.6,-0.6 7.1,-1.5 9.9,-4.6 9.9,-11.2 0,-3.8 -0.5,-5.3 -1.9,-6.4 -2,-1.4 -7.7,-1.9 -8.9,-0.7 z"
       id="path304"
       style="fill:currentColor;stroke:none;stroke-width:0.1" />
    <path
       d="m 135.6,532.3 c -3.9,3.9 -3.6,8.9 0.8,13.3 3.8,3.8 7.6,4.5 7.6,1.6 0,-1.1 -1.1,-2.4 -2.4,-3 -3.2,-1.4 -4.6,-4.1 -3.5,-7 1,-2.6 2.9,-2.7 11.4,-0.7 7.7,1.9 8.2,1.9 8.8,-0.4 0.4,-1.7 -0.5,-2.2 -6.7,-3.5 -13.8,-3.1 -13.2,-3.1 -16,-0.3 z"
       id="path305"
       style="fill:currentColor;stroke:none;stroke-width:0.1" />
    <path
       d="m 580,533.1 c -2.5,0.4 -6,1.1 -7.7,1.4 -2.4,0.4 -3.3,1.1 -3.3,2.5 0,2.3 -0.4,2.3 8,1 10.3,-1.6 11,-1.9 11,-4 0,-2.2 -0.8,-2.3 -8,-0.9 z"
       id="path306"
       style="fill:currentColor;stroke:none;stroke-width:0.1" />
    <path
       d="m 166,537.5 c 0,2 0.5,2.5 2.5,2.5 3.4,0 5.2,3.8 3.5,7 -1.3,2.4 -1.3,2.4 -15.2,0.4 -4.4,-0.6 -4.8,-0.5 -4.8,1.3 0,2.5 1.8,3 12.1,3.9 4.9,0.4 8.3,0.3 9.7,-0.5 2.7,-1.5 3.8,-7.1 2.2,-11.2 -1.3,-3.2 -2.8,-4.2 -7.2,-5.3 -2.5,-0.6 -2.8,-0.4 -2.8,1.9 z"
       id="path307"
       style="fill:currentColor;stroke:none;stroke-width:0.1" />
    <path
       d="m 548.8,536.7 c -5,0.3 -5.8,0.7 -5.8,2.3 0,2.3 2.2,2.5 12.9,1.4 5,-0.6 6.1,-1 6.1,-2.5 0,-2 0.2,-2 -13.2,-1.2 z"
       id="path308"
       style="fill:currentColor;stroke:none;stroke-width:0.1" />
    <path
       d="m 146,548 v 10.2 l 3.4,3.4 c 6.1,6.1 14.6,3.8 14.6,-4.1 0,-2.8 -0.4,-3.5 -2,-3.5 -1.3,0 -2,0.7 -2,1.9 0,2.9 -2.8,5.3 -5.4,4.5 -4,-1.2 -4.8,-3.3 -4.4,-12.9 0.3,-8.7 0.2,-9 -1.9,-9.3 -2.3,-0.3 -2.3,-0.1 -2.3,9.8 z"
       id="path309"
       style="fill:currentColor;stroke:none;stroke-width:0.1" />
    <path
       d="m 189.2,539.6 c -1.8,1.2 -2.2,2.5 -2.2,6.4 0,4.1 0.4,5.2 2.6,6.9 3.4,2.7 8.4,2.8 8.4,0.3 0,-1.2 -1.1,-2.1 -3.2,-2.7 -2.9,-0.9 -3.3,-1.4 -3.3,-4.5 v -3.5 l 9.3,-0.3 c 8.4,-0.2 9.2,-0.4 9.2,-2.2 0,-1.8 -0.7,-2 -9.3,-2 -6.8,0 -9.9,0.4 -11.5,1.6 z"
       id="path310"
       style="fill:currentColor;stroke:none;stroke-width:0.1" />
    <path
       d="m 577.7,539.7 c -0.4,0.3 -0.7,4.9 -0.7,10 0,8.8 0.2,9.6 2.6,12 3.4,3.4 8.7,2.7 12.7,-1.7 3.4,-3.8 3.9,-10.1 0.7,-9.3 -1.2,0.3 -2,1.4 -2,2.8 0,3.8 -6.6,7.5 -8.4,4.7 -0.3,-0.5 -0.8,-5 -1.2,-10 -0.6,-8.6 -1.6,-10.7 -3.7,-8.5 z"
       id="path311"
       style="fill:currentColor;stroke:none;stroke-width:0.1" />
    <path
       d="m 524.6,545.7 c -0.3,2.1 -0.6,6.6 -0.6,10 0,7.7 2,10.3 7.8,10.3 5.3,-0.1 9.2,-3.8 9.2,-8.9 0,-3.4 -3.6,-2.7 -4.3,0.9 -0.7,3.5 -4.7,5.1 -7.3,2.9 -1.4,-1.2 -1.6,-2.8 -1,-10.1 0.5,-8.1 0.4,-8.8 -1.3,-8.8 -1.4,0 -2,1 -2.5,3.7 z"
       id="path312"
       style="fill:currentColor;stroke:none;stroke-width:0.1" />
    <path
       d="m 550.7,542.7 c -0.4,0.3 -0.7,4.6 -0.7,9.5 0,8.1 0.2,8.8 2,8.8 1.6,0 2,-0.7 2,-3.4 0,-1.8 0.3,-6.1 0.6,-9.5 0.6,-5.6 0.5,-6.1 -1.3,-6.1 -1.1,0 -2.3,0.3 -2.6,0.7 z"
       id="path313"
       style="fill:currentColor;stroke:none;stroke-width:0.1" />
    <path
       d="m 200.3,543.7 c -1.4,0.5 -1.7,8.1 -0.7,14.5 0.5,2.8 1.1,3.8 2.5,3.8 1.8,0 1.9,-0.6 1.3,-8.8 -0.7,-9.1 -1.1,-10.3 -3.1,-9.5 z"
       id="path314"
       style="fill:currentColor;stroke:none;stroke-width:0.1" />
    <path
       d="m 561.3,548.7 c -4.7,0.4 -5.3,0.7 -5.3,2.6 0,2.3 0.1,2.3 9.2,1.5 9.7,-0.9 10.1,-1 10.4,-3.3 0.2,-1.6 -1.7,-1.7 -14.3,-0.8 z"
       id="path315"
       style="fill:currentColor;stroke:none;stroke-width:0.1" />
    <path
       d="m 530,551.3 c 0,2.4 0.1,2.4 9.5,2.6 9,0.2 9.5,0.1 9.5,-1.9 0,-1.8 -0.6,-2 -7.2,-2 -4,0 -8.3,-0.3 -9.5,-0.6 -1.9,-0.5 -2.3,-0.2 -2.3,1.9 z"
       id="path316"
       style="fill:currentColor;stroke:none;stroke-width:0.1" />
    <path
       d="m 175.3,553 c -3.1,2.8 -3.2,9 -0.3,9 1.4,0 2,-0.7 2,-2.3 0,-1.3 0.5,-2.8 1.2,-3.5 1.6,-1.6 5.3,-1.5 6.7,0.2 0.9,1.1 2.5,11.1 3.1,19.3 0,0.2 0.9,0.3 2.1,0.3 1.9,0 2,-0.4 1.4,-6.8 -1.4,-15.5 -2.3,-17.1 -9.7,-17.9 -3.4,-0.4 -4.8,0 -6.5,1.7 z"
       id="path317"
       style="fill:currentColor;stroke:none;stroke-width:0.1" />
    <path
       d="m 564.8,554.7 c -1.5,0.4 -1.8,1.6 -1.8,6.7 0,3.5 -0.3,7.8 -0.6,9.5 -0.6,2.8 -0.4,3.1 2,3.1 2.4,0 2.6,-0.3 2.6,-4.8 0,-2.6 0.3,-7.1 0.6,-10 0.4,-2.8 0.3,-5.1 -0.2,-5.1 -0.5,0.1 -1.7,0.3 -2.6,0.6 z"
       id="path318"
       style="fill:currentColor;stroke:none;stroke-width:0.1" />
    <path
       d="m 213.2,562.7 c 1.3,10.3 1.6,11.3 3.9,11.3 1.7,0 1.9,-0.4 1.3,-3.5 -0.3,-1.9 -0.9,-5.8 -1.3,-8.7 -0.5,-4.4 -1,-5.4 -2.7,-5.6 -2,-0.3 -2,0 -1.2,6.5 z"
       id="path319"
       style="fill:currentColor;stroke:none;stroke-width:0.1" />
    <path
       d="m 230.5,561 c -1.6,0.4 -4.9,0.8 -7.3,0.9 -3.9,0.1 -4.3,0.3 -4,2.3 0.3,2.5 0.3,2.5 11.4,0.8 6.3,-1 7.1,-1.4 6.7,-3.1 -0.6,-2 -1.8,-2.2 -6.8,-0.9 z"
       id="path320"
       style="fill:currentColor;stroke:none;stroke-width:0.1" />
    <path
       d="m 569,564 c 0,1.4 0.7,2 2.3,2 4.7,0 6.2,4.5 2.7,8 -1.7,1.7 -3.3,2 -11,2 h -9 v 2.6 c 0,2.7 0,2.7 6.1,2 3.4,-0.3 7.9,-0.6 10,-0.6 5.5,0 9.9,-4.6 9.9,-10.4 0,-5.3 -2.2,-7.6 -7.3,-7.6 -3,0 -3.7,0.4 -3.7,2 z"
       id="path321"
       style="fill:currentColor;stroke:none;stroke-width:0.1" />
    <path
       d="m 201.3,563.8 c -7.5,0.2 -8.3,0.5 -8.3,2.2 0,1.9 0.7,2 9.6,2 9.2,0 9.5,-0.1 9.2,-2.2 -0.4,-2.5 0,-2.5 -10.5,-2 z"
       id="path322"
       style="fill:currentColor;stroke:none;stroke-width:0.1" />
    <path
       d="m 538.9,565.9 c -2.2,2.3 -2.9,3.9 -2.9,6.9 0,4.5 2,6.8 6.8,7.7 2.9,0.5 3.2,0.3 3.2,-2 0,-2 -0.5,-2.5 -2.4,-2.5 -3.6,0 -4.9,-4.6 -2,-7.4 1.2,-1.2 3.7,-1.6 10.5,-1.6 8.2,0 8.9,-0.1 8.9,-2 0,-1.9 -0.7,-2 -9.6,-2 -9.2,0 -9.7,0.1 -12.5,2.9 z"
       id="path323"
       style="fill:currentColor;stroke:none;stroke-width:0.1" />
    <path
       d="m 227.3,569.2 c 0.3,1.3 1.1,5.2 1.8,8.8 0.8,4.2 2.1,7.2 3.5,8.7 5.2,5.2 14.9,1.1 14.2,-6 -0.2,-2.5 -0.8,-3.3 -2.6,-3.5 -2,-0.3 -2.2,0 -1.6,2.2 0.8,3.2 -1,5.6 -4.1,5.6 -3.2,0 -4.1,-1.5 -6,-10.3 -1.4,-6.5 -2,-7.7 -3.7,-7.7 -1.6,0 -1.9,0.5 -1.5,2.2 z"
       id="path324"
       style="fill:currentColor;stroke:none;stroke-width:0.1" />
    <path
       d="m 548.1,576.5 c -1.7,11.3 -1.5,14.1 1.1,15.9 4.4,3.1 12.2,1.1 14.5,-3.6 2.3,-4.7 2.3,-6.8 -0.1,-6.8 -1.6,0 -2.4,0.9 -3.1,3.2 -0.9,2.8 -1.5,3.3 -4.6,3.6 -4.6,0.4 -5.1,-0.9 -3.9,-8.5 1.5,-8.9 1.3,-11.3 -0.9,-11.3 -1.6,0 -2,1.2 -3,7.5 z"
       id="path325"
       style="fill:currentColor;stroke:none;stroke-width:0.1" />
    <path
       d="m 201,570.7 c 0,0.5 0.7,4.6 1.5,9.3 0.8,4.7 1.5,8.6 1.5,8.7 0,0.2 0.9,0.3 2,0.3 2.4,0 2.4,-0.3 0.5,-10.3 -0.8,-4.3 -1.5,-8.1 -1.5,-8.3 0,-0.2 -0.9,-0.4 -2,-0.4 -1.1,0 -2,0.3 -2,0.7 z"
       id="path326"
       style="fill:currentColor;stroke:none;stroke-width:0.1" />
    <path
       d="m 217.5,575.7 c -8.3,1 -9.5,1.4 -9.5,3.3 0,2.3 0.1,2.3 10.8,0.8 6.9,-0.9 8.2,-1.4 8.2,-3 0,-1.9 -1.8,-2.1 -9.5,-1.1 z"
       id="path327"
       style="fill:currentColor;stroke:none;stroke-width:0.1" />
    <path
       d="m 181,579.7 c 0,2.2 0.3,2.3 10,2.3 7.3,0 10,-0.3 10,-1.3 -0.1,-2.9 -1.7,-3.4 -10.7,-3.3 -8.9,0.1 -9.3,0.2 -9.3,2.3 z"
       id="path328"
       style="fill:currentColor;stroke:none;stroke-width:0.1" />
    <path
       d="m 217.9,581.9 c -1.5,0.5 -1.4,1.4 0.5,9.5 2.1,8.8 3,10.3 5.3,8.8 0.9,-0.6 0.7,-2.8 -0.9,-9.2 -2.3,-9.5 -2.6,-10 -4.9,-9.1 z"
       id="path329"
       style="fill:currentColor;stroke:none;stroke-width:0.1" />
    <path
       d="m 224,588.9 c 0,2.5 1.3,3.8 3.4,3.4 3,-0.6 5.8,2.2 5.4,5.6 -0.3,2.5 -0.8,2.7 -9.5,4.1 -8.9,1.4 -10.2,2.1 -8.5,4.7 0.9,1.4 17.7,-1.1 20,-2.9 6,-5 1.3,-15.8 -6.9,-15.8 -2.2,0 -3.9,0.4 -3.9,0.9 z"
       id="path330"
       style="fill:currentColor;stroke:none;stroke-width:0.1" />
    <path
       d="m 431.1,600.2 c -3.9,6.8 -4.6,10.5 -1.8,9.6 0.6,-0.2 3.1,-3.8 5.4,-7.8 3.1,-5.4 3.9,-7.6 3,-8.2 -2,-1.3 -2.3,-1 -6.6,6.4 z"
       id="path331"
       style="fill:currentColor;stroke:none;stroke-width:0.1" />
    <path
       d="m 453.4,597.5 c -0.4,0.9 0.3,2.3 1.6,3.3 1.8,1.4 2.1,2.5 1.6,4.5 -1,4.2 -3.8,4.2 -12.1,-0.1 -7.1,-3.7 -7.6,-3.9 -8.5,-2.1 -0.9,1.6 -0.1,2.4 7.1,6 6.6,3.3 8.9,3.9 11.5,3.4 6.6,-1.2 8.9,-10.4 3.8,-14.4 -3.2,-2.5 -4.3,-2.6 -5,-0.6 z"
       id="path332"
       style="fill:currentColor;stroke:none;stroke-width:0.1" />
    <path
       d="m 325,603.1 c -8.6,6.2 -9,6.6 -9,10.3 0,5 3.3,8.6 7.9,8.6 2,0 4.6,-0.6 5.6,-1.4 1.7,-1.2 1.7,-1.6 0.6,-3 -1,-1.2 -1.7,-1.4 -2.5,-0.6 -1.4,1.4 -4.9,1.3 -6.4,-0.2 -2.7,-2.7 -1.2,-5.3 5.9,-10.1 6.6,-4.6 8.1,-7 4.8,-7.4 -0.8,-0.1 -3.9,1.6 -6.9,3.8 z"
       id="path333"
       style="fill:currentColor;stroke:none;stroke-width:0.1" />
    <path
       d="m 395.5,607.1 c -6.3,8.1 -7,11.5 -3,15.4 3.3,3.4 9.3,3.4 12.3,0.2 2.6,-2.8 2.7,-3.3 0.6,-4.1 -1,-0.4 -2.5,0.1 -3.6,1.1 -1.4,1.3 -2.5,1.5 -4.6,0.7 -4.2,-1.5 -3.8,-3.9 1.7,-10.8 5.4,-6.8 5.9,-8.1 3.6,-9 -1,-0.3 -3.3,1.8 -7,6.5 z"
       id="path334"
       style="fill:currentColor;stroke:none;stroke-width:0.1" />
    <path
       d="m 359.8,607.9 c -5.7,5.4 -6.1,6.1 -4.8,7.5 1.4,1.4 2.2,1 7.9,-4.8 5.6,-5.7 7,-8.6 4.1,-8.6 -0.5,0 -3.8,2.7 -7.2,5.9 z"
       id="path335"
       style="fill:currentColor;stroke:none;stroke-width:0.1" />
    <path
       d="m 418,607.5 c -1.6,1.9 -2.1,1.4 7.1,6.8 5.6,3.3 8,4.2 8.8,3.4 0.6,-0.6 1.1,-1.4 1.1,-1.8 0,-0.5 -9.3,-6.4 -15.1,-9.5 -0.4,-0.2 -1.2,0.3 -1.9,1.1 z"
       id="path336"
       style="fill:currentColor;stroke:none;stroke-width:0.1" />
    <path
       d="m 327.7,608.1 c -1.6,0.9 -1.5,1.4 1.4,5.4 6.9,9.5 8.5,11.1 10.3,9.6 1.4,-1.2 1.1,-2 -3.6,-8 -2.8,-3.6 -5.4,-6.9 -5.7,-7.3 -0.3,-0.4 -1.4,-0.2 -2.4,0.3 z"
       id="path337"
       style="fill:currentColor;stroke:none;stroke-width:0.1" />
    <path
       d="m 345.7,610.8 c -1.4,1.5 -0.9,2.3 4.7,8.4 5.3,5.8 6.3,6.5 7.8,5.4 1.5,-1.1 1,-1.9 -4.7,-8.3 -5.8,-6.6 -6.4,-7 -7.8,-5.5 z"
       id="path338"
       style="fill:currentColor;stroke:none;stroke-width:0.1" />
    <path
       d="m 400.1,610.3 c -1.2,1.6 0.2,3.1 8.8,9.1 5,3.6 5.5,3.7 6.7,2.1 1.1,-1.5 0.4,-2.3 -6.2,-7.1 -4.1,-3 -7.7,-5.4 -7.8,-5.4 -0.2,0 -0.9,0.6 -1.5,1.3 z"
       id="path339"
       style="fill:currentColor;stroke:none;stroke-width:0.1" />
    <path
       d="m 364,611.5 c -1.2,1.5 -0.6,2.4 5.2,8.1 5.5,5.4 7.1,6.4 10.1,6.4 5.2,0 8.7,-3.2 8.7,-8 0,-5 -3.5,-8.9 -5.9,-6.5 -1.3,1.3 -1.3,1.7 0.2,3.3 2,2.2 2.2,4.3 0.5,6 -2.4,2.4 -5.3,1.1 -11.4,-4.9 -5.5,-5.4 -6.2,-5.8 -7.4,-4.4 z"
       id="path340"
       style="fill:currentColor;stroke:none;stroke-width:0.1" />
    <path
       d="m 435.6,617.7 c -4.3,7.1 -4.6,7.8 -3,9 1.5,1.1 2.3,0.4 6.7,-6.8 4,-6.5 4.7,-8.3 3.6,-9 -0.8,-0.5 -1.7,-0.9 -2,-0.9 -0.3,0 -2.7,3.5 -5.3,7.7 z"
       id="path341"
       style="fill:currentColor;stroke:none;stroke-width:0.1" />
    <path
       d="m 455.3,614.5 c -1.7,0.7 -3.6,2.2 -4.2,3.4 -1.4,2.6 -1.4,2.8 0.5,3.5 1,0.4 2.5,-0.3 4,-1.9 1.8,-1.9 2.8,-2.3 4.5,-1.6 4.6,1.6 4.6,3.4 -0.3,11.8 -4.4,7.5 -4.6,9.2 -1.2,9.3 1.8,0 9.4,-14.3 9.4,-17.8 0,-3.2 -3.1,-7.2 -5.6,-7.2 -0.7,0 -1.8,-0.2 -2.6,-0.5 -0.7,-0.2 -2.7,0.2 -4.5,1 z"
       id="path342"
       style="fill:currentColor;stroke:none;stroke-width:0.1" />
    <path
       d="m 416.6,622.5 c -5.2,7 -5.5,7.5 -3.6,8.5 1.7,0.9 2.4,0.3 5.8,-4.2 7.1,-9.8 7.5,-10.5 5.7,-11.2 -0.9,-0.3 -1.8,-0.6 -2,-0.6 -0.1,0 -2.8,3.4 -5.9,7.5 z"
       id="path343"
       style="fill:currentColor;stroke:none;stroke-width:0.1" />
    <path
       d="m 340.5,624.1 c -3.9,2.8 -7.1,5.4 -7.3,5.8 -0.1,0.5 0.4,1.3 1.1,2 1.2,0.9 2.9,0.1 8.6,-4.1 6.4,-4.8 8.3,-7.6 5.6,-8.5 -0.6,-0.2 -4.2,2 -8,4.8 z"
       id="path344"
       style="fill:currentColor;stroke:none;stroke-width:0.1" />
    <path
       d="m 359.3,625.5 c -6.6,5.9 -7,6.5 -5.4,7.9 1.5,1.4 2.3,0.9 8.6,-4.9 6.2,-5.6 6.8,-6.5 5.5,-7.8 -1.3,-1.3 -2.3,-0.7 -8.7,4.8 z"
       id="path345"
       style="fill:currentColor;stroke:none;stroke-width:0.1" />
    <path
       d="m 440.6,620.6 c -0.3,0.9 -0.6,1.7 -0.6,1.8 0,0.2 3.6,2 8,4 7.7,3.7 11,4.1 11,1.4 -0.1,-1.1 -15.2,-8.9 -17.1,-8.8 -0.4,0 -1,0.7 -1.3,1.6 z"
       id="path346"
       style="fill:currentColor;stroke:none;stroke-width:0.1" />
    <path
       d="m 314.8,626.1 c -3.1,2.3 -3.7,6.3 -1.7,10.2 1.6,3 1.5,3 3.7,1.6 1.9,-1.2 1.9,-1.4 0.5,-3.6 -1.4,-2.1 -1.4,-2.5 0.2,-4.3 2.6,-2.9 5.8,-2.5 8.5,1.2 1.3,1.7 3.9,4.8 5.8,6.9 2.8,3.2 3.7,3.7 5.3,2.8 1.7,-0.9 1.4,-1.5 -3.7,-7.7 -3.1,-3.7 -6.3,-7.3 -7.2,-8 -2.4,-1.8 -8.4,-1.4 -11.4,0.9 z"
       id="path347"
       style="fill:currentColor;stroke:none;stroke-width:0.1" />
    <path
       d="m 421.6,625.6 c -0.3,0.9 -0.6,1.6 -0.6,1.7 0,0.1 3.8,2.2 8.5,4.7 7.2,3.8 8.7,4.3 9.5,3 0.5,-0.8 1,-1.7 1,-2 0,-0.6 -15.7,-9 -16.9,-9 -0.5,0 -1.2,0.7 -1.5,1.6 z"
       id="path348"
       style="fill:currentColor;stroke:none;stroke-width:0.1" />
    <path
       d="m 395.1,629.6 c -2.5,2 -3.1,3.4 -3.1,6.3 0,5.6 4.2,9 7,5.6 1,-1.2 0.9,-1.6 -0.3,-2.1 -2.5,-0.9 -3.1,-4.3 -1.1,-6.5 2.5,-2.8 4.1,-2.4 12.3,3.2 5.6,3.7 7.6,4.7 8.2,3.7 0.4,-0.7 0.9,-1.6 1.1,-1.9 0.1,-0.4 -3.1,-3 -7.3,-5.8 -8.9,-5.9 -12.2,-6.4 -16.8,-2.5 z"
       id="path349"
       style="fill:currentColor;stroke:none;stroke-width:0.1" />
    <path
       d="m 343.5,629 c -0.6,1.1 11,15 12.5,15 0.4,0 1.3,-0.7 2,-1.6 1.1,-1.3 0.4,-2.4 -5.1,-8 -6.2,-6.3 -8.2,-7.4 -9.4,-5.4 z"
       id="path350"
       style="fill:currentColor;stroke:none;stroke-width:0.1" />
    <path
       d="m 363.6,629.8 c -1.5,1.8 -1.3,2.2 5.5,8 6.1,5.4 7.3,6.1 9.1,5.1 1.1,-0.6 1.6,-1.4 1.2,-1.8 -0.5,-0.4 -3.9,-3.5 -7.5,-6.9 -6.3,-6 -6.6,-6.1 -8.3,-4.4 z"
       id="path351"
       style="fill:currentColor;stroke:none;stroke-width:0.1" />
    <path
       d="m 374.6,630.1 c -2.4,1.9 -2.6,2.3 -1.3,3.6 1.3,1.3 1.8,1.3 4,-0.2 3.1,-2 6.2,-1.3 7.8,1.7 1,1.8 0.3,2.8 -6,8.9 -7,6.6 -7.1,6.8 -5,8 2,1.1 2.8,0.5 9.1,-5.9 7.9,-8.1 8.5,-10.6 3.9,-15.3 -3.6,-3.6 -8.6,-3.9 -12.5,-0.8 z"
       id="path352"
       style="fill:currentColor;stroke:none;stroke-width:0.1" />
    <path
       d="m 420.1,639.8 c -5.6,7 -5.9,7.8 -4.3,9 1.5,1.1 2.1,0.8 4.9,-2.5 1.8,-2.1 4.6,-5.7 6.3,-8 2.9,-4 3,-4.3 1.2,-5.2 -1.7,-0.9 -2.8,0 -8.1,6.7 z"
       id="path353"
       style="fill:currentColor;stroke:none;stroke-width:0.1" />
    <path
       d="m 317.5,639.1 c -4.3,2.7 -8.3,5.5 -8.7,6.2 -3.2,5 2.6,12.7 9.6,12.7 2.8,0 7.6,-1.9 7.6,-3 0,-2.1 -2.8,-2.9 -5.8,-1.8 -2.7,1 -3.4,0.9 -5.1,-0.7 -3.7,-3.2 -2.6,-5.1 5.8,-10.1 7,-4.2 7.8,-5 6.8,-6.6 -0.7,-1 -1.4,-1.8 -1.7,-1.7 -0.3,0.1 -4.1,2.3 -8.5,5 z"
       id="path354"
       style="fill:currentColor;stroke:none;stroke-width:0.1" />
    <path
       d="m 337.9,642.3 c -6.9,4.8 -7.5,5.5 -6.4,7.1 1.3,1.7 1.8,1.5 7.7,-2.5 9.2,-6.1 10,-6.9 8.7,-8.6 -0.6,-0.7 -1.4,-1.3 -1.8,-1.3 -0.3,0 -4,2.4 -8.2,5.3 z"
       id="path355"
       style="fill:currentColor;stroke:none;stroke-width:0.1" />
    <path
       d="m 358.6,643.9 c -3.8,3.1 -7.3,6.7 -7.7,7.9 -1.9,5.2 3,10.3 10.1,10.4 3.8,0 8,-2.2 8,-4.2 0,-1.7 -3.2,-1.9 -5.5,-0.4 -2.6,1.7 -4.9,1 -7.6,-2.2 -1.2,-1.5 -0.5,-2.4 6,-8.3 4.6,-4.2 7.2,-7.2 6.7,-7.9 -1.2,-2 -2.9,-1.3 -10,4.7 z"
       id="path356"
       style="fill:currentColor;stroke:none;stroke-width:0.1" />
    <path
       d="m 321.2,644.3 c -0.9,1 0.2,2.9 4.6,7.9 7.9,9.1 11.8,10.6 18.3,7.3 4.9,-2.6 5.8,-7.4 2.1,-11.8 -1.7,-1.9 -2.1,-2 -4.1,-0.8 -1.1,0.7 -1,1.3 0.5,3.6 1.8,2.7 1.8,2.8 -0.5,4.6 -1.3,1.1 -3.1,1.9 -4.1,1.9 -1,0 -4.6,-3.2 -8,-7 -3.4,-3.9 -6.6,-7 -7,-7 -0.4,0 -1.2,0.6 -1.8,1.3 z"
       id="path357"
       style="fill:currentColor;stroke:none;stroke-width:0.1" />
    <path
       d="m 384,647.5 c -1.1,1.3 -0.9,2 0.8,3.8 2,2.1 2,2.5 0.6,4.5 -2.5,3.6 -5.9,2.8 -13.2,-3.3 -3.7,-3 -6.9,-5.5 -7.3,-5.5 -0.4,0 -1.2,0.6 -1.8,1.4 -1,1.2 0.2,2.6 6,7.5 6.6,5.6 7.7,6.1 11.9,6.1 8.6,0 12.8,-7.2 7.9,-13.4 -2.4,-3 -3.2,-3.2 -4.9,-1.1 z"
       id="path358"
       style="fill:currentColor;stroke:none;stroke-width:0.1" />
    <path
       d="m 358.5,156.6 c -59.1,4.4 -110,28.7 -147.3,70.4 -29.5,33 -47.4,72.3 -53.3,117 -1.8,13.4 -1.5,43 0.6,56.4 7.2,47 27.7,87.9 60.5,120.6 32.8,32.9 73.2,53.2 120.5,60.6 22.7,3.5 56.4,2 79.5,-3.6 77.6,-18.6 137.9,-77.5 157.5,-153.5 5.4,-20.8 6.8,-32.4 6.8,-54.5 0,-22.1 -1.5,-33.9 -6.8,-54.6 C 555.4,233 484.8,170.3 400,158.6 388.9,157 366.8,156 358.5,156.6 Z m 37.3,7.9 c 84.4,10.5 155,73.3 175.3,155.9 4.8,19.8 6.2,33.3 5.6,55.1 -0.5,19.7 -1.9,29.7 -6.3,47 -6.8,26.8 -21.3,55.5 -39.1,77.5 -8.3,10.2 -27.1,28.4 -37,35.7 -53.2,39.4 -120,51.4 -183.4,32.9 C 259,553.5 212.5,515.3 187.1,467 155.5,406.6 154.9,336 185.5,276.1 c 31,-60.6 90.9,-103 157.6,-111.5 14.3,-1.9 38.1,-1.9 52.7,-0.1 z"
       id="path47"
       style="fill:currentColor;stroke:none;stroke-width:0.1" />
    <path
       d="m 355.4,100.1 -3.8,3.9 3.9,3.3 c 6.8,5.5 15.9,13.8 18.8,17 3.2,3.7 3.5,7.9 0.7,10.7 -3.2,3.2 -7,3 -11.4,-0.7 l -3,-2.5 -3.3,3.8 -3.3,3.8 2.1,2.2 c 1.2,1.3 3.9,3.2 6.1,4.3 l 3.9,1.9 -7.3,0.6 c -4,0.4 -10,0.9 -13.3,1.2 l -6,0.5 3.1,-1.9 c 1.7,-1.1 5.8,-5.3 9.2,-9.3 3.3,-4.1 8.3,-9.6 11.1,-12.4 l 5.1,-4.9 -3.7,-3.8 -3.7,-3.8 -4.9,4.7 c -2.7,2.7 -7.1,7.7 -9.9,11.3 -2.8,3.6 -6,7.3 -7.1,8.2 -2.7,2.5 -6.9,2.2 -9.5,-0.5 -2.8,-2.9 -2.8,-7 -0.1,-10.9 1.2,-1.6 2,-3 1.8,-3.2 -0.2,-0.1 -2.2,-1.3 -4.3,-2.6 l -3.9,-2.3 -2.3,2.6 c -8,9.4 -2.4,25.9 9.5,28.3 1.7,0.4 3.1,1 3.1,1.3 0,0.4 -3.4,1.3 -7.7,2 -4.2,0.7 -8.3,1.5 -9.1,1.8 -1.2,0.5 -1.1,0.1 0.2,-2.5 2.3,-4.5 2,-7.9 -1.1,-10.8 -2.4,-2.2 -2.8,-2.3 -4.2,-0.9 -1.5,1.5 -1.4,1.8 0.8,3.4 1.9,1.4 2.2,2.4 1.7,4.5 -0.8,3.1 -3.1,4.4 -5.5,2.9 -0.9,-0.5 -4.2,-2.4 -7.3,-4.2 -5.4,-3 -5.7,-3.1 -6.7,-1.3 -0.9,1.6 0,2.4 7,6.1 4.4,2.4 7.9,4.4 7.7,4.6 -0.2,0.1 -2.4,0.9 -5,1.8 l -4.8,1.6 1.5,-3 c 1.4,-2.7 1.4,-3 -0.1,-3.6 -1.1,-0.4 -2.3,0.2 -3.4,1.7 -1.2,1.6 -2.3,2.1 -3.8,1.5 -4.4,-1.3 -4.5,-3.8 -0.3,-12 3.5,-7.1 3.7,-7.7 2,-8.6 -1.6,-0.8 -2.3,0 -5.4,6.1 -5.1,10.2 -4.6,14.9 1.8,18.2 l 2.9,1.5 -5.7,2 c -5,1.9 -5.6,1.9 -4.9,0.5 0.4,-1 0.9,-3.3 1.2,-5.3 0.3,-3 -0.1,-4 -2.4,-5.8 -1.5,-1.2 -3.2,-2 -3.8,-1.8 -2,0.7 -1.8,3.5 0.3,4.2 1.5,0.4 2.1,1.5 2.1,3.5 0,4.7 -2.5,5.2 -10.9,1.9 -4.1,-1.6 -7.8,-2.6 -8.2,-2.3 -2.5,1.5 -0.2,3.5 7.1,6.1 4.4,1.5 8,3.1 8,3.4 0,0.5 -6.5,3.9 -7.5,3.9 -0.2,0 -0.3,-1.2 -0.2,-2.7 0.1,-1.9 -0.3,-2.8 -1.5,-3.1 -1.1,-0.2 -1.8,0.3 -1.8,1.1 0,2.7 -2.8,4.1 -5.5,2.9 -3.1,-1.4 -3.2,-3.9 -0.5,-11.7 2.5,-7.2 2.5,-8.5 0.1,-8.5 -1.4,0 -2.3,1.6 -4,7.2 -1.1,4 -2.1,8.3 -2.1,9.4 0,3 3.5,7 6.7,7.9 l 2.7,0.6 -4.7,3 c -2.6,1.6 -4.9,2.9 -5.1,2.9 -0.2,0 0,-1.5 0.5,-3.4 1.3,-4.7 -0.3,-8.4 -4.3,-10.1 -2.9,-1.2 -3.4,-1.1 -4.2,0.3 -0.6,1 -0.5,1.7 0.2,2 0.7,0.2 2.2,1.2 3.4,2.2 2,1.5 2.1,2.1 1,4.4 -1.4,3 -3,3.2 -11.7,1.1 -3.3,-0.8 -6.3,-1.5 -6.7,-1.5 -1.6,0 -0.7,3.9 1,4.3 1.7,0.5 12,2.4 15.5,2.9 1.3,0.2 0.2,1.4 -3.7,3.9 -5.3,3.5 -5.4,3.5 -4.5,1.1 0.5,-1.4 0.8,-3.1 0.5,-3.9 -0.8,-2 -3.6,-1.5 -3.6,0.7 0,3.6 -5.1,4.6 -7.6,1.4 -1,-1.3 -0.3,-10.9 1.1,-15.5 0.5,-1.6 -2.2,-3.5 -3.3,-2.4 -1.3,1.2 -3.1,16.7 -2.2,19 1.1,2.9 4.2,4.7 8.6,4.8 1.8,0.1 3.2,0.2 3.1,0.3 -0.1,0.1 -2.9,2.3 -6.1,4.9 -3.5,2.8 -5.6,4 -5.1,2.9 2.6,-5.6 -0.1,-11.6 -5.7,-12.9 -2.4,-0.6 -2.8,-0.4 -2.8,1.4 0,1.4 0.8,2.3 2.5,2.7 3,0.7 4.3,4.7 2.4,7 -1.1,1.4 -2.7,1.5 -9.6,1 -7.8,-0.7 -8.3,-0.6 -8.3,1.2 0,1.7 1,2 8.5,2.7 4.6,0.4 8.9,0.4 9.5,0 2,-1.3 0.9,0.2 -3.6,4.5 l -4.6,4.5 0.7,-3.8 c 0.7,-3.3 0.5,-3.7 -1.4,-3.7 -1.4,0 -2.1,0.6 -2.1,1.8 0,2.4 -1.9,4.2 -4.5,4.2 -3.7,0 -4.5,-2 -4.5,-10.7 0,-7.6 -0.2,-8.3 -2,-8.3 -1.9,0 -2,0.7 -2,9 0,8.4 0.2,9.3 2.6,11.6 2,2.1 3.3,2.5 6.5,2.2 2.1,-0.2 3.9,-0.1 3.9,0.2 -0.1,0.3 -3,3.6 -6.6,7.5 -5.6,6.1 -6.4,6.6 -5.7,4 2.7,-10.2 -3.1,-20.8 -12.6,-23.2 -2.8,-0.7 -21.2,1.1 -30.6,3.1 l -6,1.2 0.4,4.9 c 0.1,2.8 0.5,5.2 0.6,5.4 0.2,0.2 4.4,-0.4 9.2,-1.3 18.9,-3.4 23.4,-3.8 26,-2.1 5.4,3.6 4.5,11.8 -1.5,13.1 -6.4,1.4 -6.2,1.2 -5.6,5.7 0.4,2.3 0.9,4.5 1.3,4.9 0.8,1 9.1,-1 11.9,-2.8 1.2,-0.8 2.2,-1.2 2.2,-1 0,0.3 -2.5,4 -5.6,8.3 -3.1,4.3 -6.2,9 -7,10.5 -1.8,3.5 -2.8,3.6 -2,0.3 0.3,-1.3 -0.5,-8 -1.8,-14.7 -1.3,-6.8 -2.7,-14.4 -3.1,-17.1 -0.7,-5.1 -1.1,-5.3 -7.5,-4.1 l -3.2,0.7 0.6,5.1 c 0.4,2.8 1.6,9.6 2.8,15.1 1.2,5.5 2.1,11.1 2.1,12.4 -0.2,5.4 -8,8.5 -12.2,4.7 -1,-1 -2.2,-3.3 -2.5,-5.2 -0.4,-1.9 -0.8,-3.4 -1,-3.4 -0.1,0 -2.3,0.7 -4.9,1.6 -5.3,1.8 -5.6,2.8 -2.8,9 4.5,9.8 18.5,12.9 27.5,6 l 3.2,-2.4 -4.6,8.9 -4.5,8.9 -1.2,-3 c -1.8,-4.2 -5.5,-6.4 -9.7,-5.6 -2.7,0.5 -3.3,1 -2.9,2.6 0.4,1.5 1.1,1.8 3.2,1.4 1.8,-0.4 3.3,0 4.4,1.1 3.5,3.5 1.7,5.6 -8.3,9.6 -5.7,2.2 -7.3,4 -4.9,5.4 1,0.7 13.1,-3.9 15.8,-5.9 1.1,-0.9 1.2,-0.6 0.6,1.3 -1.2,4 -3.4,8.7 -3.5,7.5 0,-2.2 -2.6,-4.5 -4.2,-3.9 -1.4,0.6 -1.5,1.1 -0.5,3.2 0.9,2.1 0.8,2.7 -0.8,3.9 -3.8,2.8 -5.8,1.4 -9.7,-6.8 -2.8,-5.7 -4.2,-7.6 -5.3,-7.2 -2.2,0.9 -1.9,2.7 2,10.4 4.6,9.1 8,10.9 14.4,7.5 l 2.8,-1.4 -1.6,5.4 c -1.5,5.2 -3.1,7.2 -3.1,4.1 0,-2.1 -4.9,-5.6 -7.7,-5.6 -3.5,0 -6.3,1.8 -5.6,3.5 0.4,1.1 1.4,1.4 3.8,0.9 2.6,-0.5 3.6,-0.2 4.8,1.6 0.9,1.2 1.3,2.8 1,3.5 -0.2,0.8 -3.6,3.2 -7.4,5.5 -7.1,4.2 -7.7,4.8 -5.8,6.7 0.8,0.8 3.2,-0.2 8.7,-3.8 4.2,-2.6 7.7,-4.7 7.8,-4.6 0.1,0.1 -0.3,2.4 -0.9,5 -1.1,4.8 -1.1,4.8 -2.8,2.6 -1,-1.4 -2.2,-2 -3.3,-1.6 -1.3,0.5 -1.4,1 -0.4,3.2 1,2.2 0.9,2.9 -0.9,4.7 -2.8,2.7 -4.6,1.9 -8.5,-3.8 -5.8,-8.3 -6.3,-8.8 -8.1,-7.8 -1.5,0.9 -1.1,1.8 2.7,7.4 2.4,3.6 5.1,7.2 6.1,8 2.4,2 8,1.8 10.5,-0.5 1.1,-1 2.1,-1.6 2.3,-1.4 0.2,0.2 -0.2,3.1 -0.8,6.4 l -1.1,6 -1.7,-3.1 c -2.3,-4.4 -7.2,-5.8 -11.8,-3.4 -2.1,1.2 -2.3,1.8 -1,3.9 0.7,1.1 1.3,1 3.3,-0.3 2.2,-1.4 2.6,-1.4 4.6,0 3.5,2.5 2.6,4.7 -4.3,10.2 -6.6,5.4 -7.6,6.8 -5.1,7.8 1.3,0.5 12.9,-8.1 14.8,-11 0.4,-0.6 0.8,1.7 0.8,5.1 0,3.6 -0.4,6.3 -1,6.3 -0.5,0 -1,-0.6 -1,-1.4 0,-0.7 -0.7,-1.9 -1.5,-2.6 -1.2,-1 -1.8,-1 -3,0 -1.4,1.2 -1.4,1.5 0,3 2,2.2 1.9,3.3 -0.3,5.3 -3,2.8 -4.7,2 -10.5,-4.6 -5,-5.5 -5.7,-6 -7.1,-4.7 -1.4,1.4 -0.9,2.2 4.7,8.3 7.4,8 10.8,8.8 15.8,3.8 l 2.9,-2.9 v 6.5 6.6 l -2.5,-2.7 c -3.1,-3.3 -9.2,-3.6 -12,-0.6 -1.4,1.6 -1.6,2.3 -0.7,3.2 0.9,0.9 1.9,0.8 4,-0.4 2.6,-1.6 3.1,-1.6 5,-0.2 1.2,0.8 2.2,2.1 2.2,2.8 0,0.8 -2.5,4.1 -5.5,7.6 -4.7,5.2 -5.4,6.4 -4.3,7.7 1.1,1.4 2,0.7 7,-4.8 3.2,-3.5 5.8,-6.7 5.8,-7.2 0,-0.4 0.4,-0.7 0.9,-0.7 0.5,0 1.1,2.5 1.3,5.5 0.1,3 0,5.5 -0.3,5.5 -0.3,0 -1.4,-0.9 -2.4,-2 -2.2,-2.4 -3.1,-2.5 -3.9,-0.3 -0.4,1 -0.1,2 0.9,2.5 0.8,0.5 1.5,1.7 1.5,2.7 0,1.9 -2.9,5.1 -4.6,5.1 -0.6,0 -4,-2.5 -7.6,-5.5 -5.9,-4.8 -6.8,-5.2 -7.9,-3.8 -1.2,1.3 -0.8,2.1 2.6,5 8,7 11.2,8.7 14.7,7.7 1.9,-0.6 4.2,-2.3 5.4,-4.1 l 2.1,-3.2 1.2,7.7 c 0.7,4.2 1.5,8.8 1.8,10.2 0.4,2.4 0.3,2.3 -1.6,-0.5 -3.1,-4.7 -9.6,-7.9 -15.8,-7.8 -9.3,0.1 -12.2,2.9 -24,23.6 -3,5.3 -5.3,10.3 -5,11 0.2,0.6 2.3,2.2 4.5,3.5 l 4,2.2 4.1,-7.9 c 10.1,-19.9 14.3,-24.5 19.8,-21.9 1.5,0.7 3.4,2.5 4.2,3.9 1.3,2.4 1.3,3 -0.8,6.9 -1.2,2.3 -2.1,4.4 -1.9,4.5 0.2,0.1 2.2,1.2 4.6,2.4 l 4.3,2.2 2.4,-5.3 c 1.4,-2.9 2.5,-6.2 2.5,-7.3 0.1,-1.1 1.7,3.1 3.6,9.4 1.9,6.3 4,12.4 4.6,13.5 0.8,1.5 0.1,1.2 -2.3,-1 -1.9,-1.8 -6.3,-4.6 -9.9,-6.4 -3.6,-1.8 -10,-5.3 -14.4,-7.8 -8.4,-4.8 -7.9,-4.9 -11.2,1.2 -1.6,2.8 -1.5,3 0.7,4.7 1.3,1 8.1,4.7 15.1,8.4 6.9,3.6 12.9,7.2 13.2,8.1 1.1,2.8 0.6,5.1 -1.5,7.9 -2.2,2.7 -2.8,2.8 -11.4,1.3 -1.5,-0.2 -2.3,0.6 -3.5,4 -1.7,4.9 -1.4,5.4 5.5,7.3 4.5,1.2 10.1,0 14.7,-3.2 3.5,-2.5 6.8,-9.5 6.8,-14.5 0,-3.8 0.2,-3.6 4.4,5.1 2.4,4.9 4.2,9.1 4.1,9.2 -0.1,0.2 -1.5,-0.3 -3.2,-0.9 -2.3,-0.9 -3.7,-0.9 -6,0.1 -3.1,1.2 -5.8,5.5 -4.8,7.2 1.1,1.7 3.2,0.9 4.3,-1.6 1.3,-2.8 3.8,-3.2 6.6,-1.2 1.7,1.3 1.7,1.6 -0.3,8.8 -1.2,4.2 -2.1,8.1 -2.1,8.7 0,2 4,1.4 4.1,-0.6 0,-0.9 1,-4.9 2.3,-8.7 l 2.2,-7 2.2,4.2 c 2.7,5.3 2.7,5.5 -0.2,4.3 -4.2,-1.6 -5.2,2 -1,3.8 1.9,0.9 2.5,1.8 2.2,3.9 -0.5,4.4 -2.7,4.9 -11.6,2.7 -7.7,-1.9 -8.1,-1.9 -8.5,-0.2 -0.6,2.3 -0.7,2.3 9.1,4.4 7.7,1.6 8.5,1.7 11,0.2 1.6,-1 3.1,-3.2 3.8,-5.4 l 1,-3.8 3.3,4.8 3.3,4.8 -2.8,-0.2 c -6.7,-0.5 -8.9,0.8 -10.3,5.7 -0.9,3.1 -0.8,3.3 1.5,3.3 1.7,0 2.4,-0.6 2.4,-2 0,-2.7 3.4,-4.4 6.1,-2.9 2,1 2.1,1.6 1.4,10 -0.7,8.6 -0.6,8.9 1.4,8.9 1.8,0 2.1,-0.6 2.2,-4.3 0,-2.3 0.4,-6.4 0.7,-9.2 l 0.7,-4.9 3.4,4.3 3.5,4.3 -3.2,-0.7 c -2.8,-0.6 -3.2,-0.4 -3.2,1.4 0,1.2 0.6,2.1 1.4,2.1 1.8,0 4.6,2.7 4.6,4.5 0,0.7 -0.7,2.1 -1.6,3 -1.4,1.4 -3,1.5 -10,1 -7.9,-0.7 -8.4,-0.6 -8.4,1.2 0,1.8 0.9,2.1 8.7,2.7 10.2,0.8 13.1,-0.5 14.8,-6.8 l 1,-3.6 4.4,4.4 4.3,4.4 -4.5,-0.5 c -3.9,-0.5 -4.9,-0.2 -7.1,2 -3.2,3.2 -3.5,7.7 -0.6,7.7 1.3,0 2,-0.7 2,-1.8 0,-2.5 1.9,-4.2 4.7,-4.2 2.2,0 4.5,2.9 4.2,5.3 -0.1,0.6 -0.1,4 0,7.4 0.1,5.6 0.3,6.1 2.1,5.6 1.9,-0.5 2,-1.1 1.4,-10.2 l -0.6,-9.6 4.6,4.5 c 2.5,2.4 4.6,4.5 4.6,4.5 0,0.1 -1.6,-0.1 -3.5,-0.3 -3,-0.4 -3.5,-0.1 -3.5,1.7 0,1.5 0.6,2.1 2.3,2.1 4.7,0 6.3,4.7 2.5,7.4 -1.5,1.1 -4.6,1.6 -9.5,1.6 -7.1,0 -7.3,0.1 -7.3,2.5 0,2.3 0.2,2.4 5.3,1.9 15.5,-1.5 17.3,-2.5 17.1,-9.9 l -0.1,-4.3 4.9,3.6 c 2.6,2 4.8,3.9 4.8,4.2 0,0.3 -1.7,0.6 -3.7,0.7 -5.4,0.3 -7.8,3.4 -7.4,9.6 0.2,2.7 3.6,1.7 3.7,-1 0.2,-4.5 4.8,-7 7.2,-4 0.5,0.6 1.6,4.7 2.2,8.9 1.1,6.5 1.6,7.8 3.1,7.8 1.1,0 1.9,-0.6 1.9,-1.3 -0.1,-2.6 -2.8,-16.5 -3.5,-17.7 -0.4,-0.6 1.9,0.6 5.1,2.7 l 5.8,3.8 -3.7,0.3 c -3,0.3 -3.7,0.7 -3.7,2.4 0,1.6 0.5,1.9 2.6,1.5 4.2,-0.8 7.2,4.1 4.2,7.1 -0.6,0.6 -4.7,1.9 -9,2.9 -5.1,1.1 -7.8,2.1 -7.8,3 0,0.8 0.6,1.6 1.4,1.9 2,0.8 16.6,-3.2 18.4,-5 1.7,-1.7 2.1,-6.8 0.9,-10.3 -0.7,-1.9 0.2,-1.6 7,2.3 4.3,2.4 8.2,4.5 8.8,4.5 0.5,0.1 -1.5,0.5 -4.7,0.9 -7.8,1 -12.1,4 -15.3,10.5 -2.5,5 -2.6,5.8 -1.6,10.7 1.6,7.2 11.1,30.8 12.5,30.8 2.5,0 9.7,-3.4 9.2,-4.4 -10.9,-24.6 -12.3,-28.7 -11.1,-32.3 1.3,-3.6 5.3,-5.8 8.8,-4.9 1.9,0.4 3.4,2 4.9,5 l 2.1,4.4 4.1,-1.9 c 2.2,-1 4.2,-2.2 4.4,-2.8 0.5,-1.4 -2.6,-7.2 -5.5,-10.2 -2.3,-2.5 -1.9,-2.4 8.9,1.8 16.4,6.4 15.9,6.2 12,6.2 -1.8,0.1 -8.8,2.5 -15.5,5.5 -6.7,2.9 -13.9,5.9 -15.9,6.5 -2.1,0.7 -3.8,1.4 -3.8,1.6 0,0.2 0.9,2.4 2,4.9 l 1.9,4.6 6.3,-2.4 c 3.5,-1.3 10.3,-4.2 15.1,-6.5 4.9,-2.2 9.6,-4.1 10.4,-4.1 2.6,0 5,1.9 6.2,4.9 1.6,3.8 -0.5,8.3 -4.9,10.1 l -3,1.2 2.2,3.7 c 3.2,5.4 3.3,5.4 7.3,3.5 10.5,-4.9 12.3,-19.9 3.5,-28.7 -2.2,-2.1 -3.4,-3.7 -2.7,-3.5 0.7,0.2 4.9,1.2 9.5,2.3 8.4,1.9 9.8,2.8 6.1,4 -2.9,0.9 -5.2,6.7 -4,9.9 1.2,2.9 2.3,3.7 3.9,2.7 1,-0.6 1.1,-1.3 0.1,-3.5 -1.1,-2.3 -1,-2.9 0.8,-4.8 2.8,-2.8 4.4,-2 9.4,4.9 5.7,7.9 5.6,7.8 7.3,6.4 1.3,-1.1 0.8,-2.3 -3.9,-8.7 -5.5,-7.4 -5.5,-7.4 -2.8,-7.3 1.6,0.1 3.9,0.4 5.3,0.8 l 2.5,0.7 -2.2,1.2 c -2.5,1.4 -2.7,2 -1.3,4.2 0.7,1.2 1.2,1.2 2.2,0.2 0.6,-0.6 2,-1.2 2.9,-1.2 2.2,0 5.1,3.9 4.1,5.6 -0.7,1.2 -7.8,7.3 -11.6,10 -1.9,1.3 -1.9,1.5 -0.5,3 1.5,1.4 2.2,1.1 8,-3.7 3.5,-2.9 6.7,-5.8 7.1,-6.3 1.6,-2.3 0.8,-8 -1.4,-10.3 l -2.1,-2.3 h 5.6 c 3.1,0 5.7,0.3 5.7,0.6 0,0.3 -1.1,1.9 -2.5,3.6 -3,3.5 -3.2,7.1 -0.6,10.4 1.5,1.9 2.1,2.1 3,1.1 0.8,-1 0.7,-2.2 -0.1,-4.4 -0.9,-2.5 -0.9,-3.5 0.1,-4.7 2.3,-2.7 4.3,-1.8 10.7,4.5 5.4,5.3 6.2,5.8 7.4,4.4 1.2,-1.4 0.5,-2.4 -5.1,-8.1 l -6.3,-6.4 h 4.8 c 4.8,0 4.9,0 3.1,2 -1.5,1.6 -1.6,2.2 -0.5,3.5 1.2,1.4 1.5,1.4 3,0 2,-1.8 4.2,-1.9 5.8,-0.3 2.3,2.3 1.1,5.3 -4.5,11 -5.2,5.2 -5.6,5.9 -4.2,7.3 1.4,1.5 2.2,1 7.7,-5 7.2,-7.7 8.1,-11.7 3.7,-16.1 -1.4,-1.4 -2.5,-2.7 -2.5,-2.9 0,-0.3 2.7,-0.5 6,-0.5 h 5.9 l -2.4,2.5 c -3.2,3.1 -3.4,9.3 -0.5,12 1.6,1.5 2.2,1.6 3.5,0.5 1.4,-1.2 1.4,-1.5 -0.5,-3.5 -1.1,-1.2 -2,-2.6 -2,-3.2 0,-1.2 3.3,-4.3 4.6,-4.3 0.6,0 3.9,2.2 7.4,4.9 4.9,3.8 6.7,4.7 7.7,3.9 0.8,-0.6 1.2,-1.4 1.1,-1.8 -0.4,-1.1 -13,-10.6 -14.8,-11.2 -0.8,-0.3 0.8,-0.8 3.5,-1.2 2.8,-0.4 5.9,-1 7,-1.3 1.9,-0.5 1.9,-0.4 -0.2,1.9 -4,4.2 -2,7.7 2.2,3.8 2,-1.9 2.6,-2 4.4,-0.8 3.6,2.2 3.4,4 -1.8,11.5 -4.7,6.7 -4.9,7.3 -3.2,8.2 1.6,0.9 2.5,0 6.6,-5.9 3.4,-4.9 4.8,-7.9 4.7,-10.1 -0.1,-3.3 -3.5,-7.9 -5.9,-7.9 -0.7,0 -1.3,-0.4 -1.3,-0.8 0,-1 12,-3.6 12.8,-2.8 0.3,0.3 0.1,0.6 -0.5,0.6 -1.4,0 -3.3,4.6 -3.3,8 0,2.9 4.3,7.5 6.1,6.4 1.4,-0.8 1.1,-3 -0.7,-4.4 -1.8,-1.6 -1.5,-5.9 0.6,-7.2 1.1,-0.7 3.6,0.2 8.9,3.1 7.1,4 9.1,4.3 9.1,1.7 0,-1.3 -12.4,-8.6 -14.6,-8.6 -2.9,0 -1.2,-1.7 2.7,-2.9 2.3,-0.7 4.7,-1.5 5.5,-1.8 1.1,-0.4 1,0.2 -0.3,2.6 -1.6,2.7 -1.6,3.3 -0.4,4.1 1.1,0.6 2.2,0.1 3.8,-1.6 1.9,-2.1 2.6,-2.3 4.3,-1.4 3.5,1.9 3.5,4 -0.3,11.6 -3.6,7.2 -3.6,7.4 -1.6,8.4 1.8,1 2.3,0.4 5.4,-6.5 5,-10.8 4.5,-14.3 -2.3,-17.2 -2.5,-1.1 -3.2,-1.8 -2.2,-2.1 0.8,-0.3 4.9,-2 9.2,-3.7 l 7.6,-3.2 -2.8,3.9 c -3.6,4.9 -4.6,10.6 -3,16.4 2.3,8.2 7.8,11.4 30.4,17.9 4.8,1.4 9.1,2.5 9.5,2.5 0.9,0 4.2,-9 3.6,-10 -0.2,-0.4 -2.2,-1 -4.2,-1.3 -6.4,-1.1 -26.1,-7.6 -27.7,-9.3 -2.7,-2.7 -3.1,-6.3 -0.8,-9.2 1.8,-2.4 2.6,-2.7 7.6,-2.5 l 5.6,0.2 1,-4.1 c 1.5,-5.3 0.6,-6.1 -7.5,-6.6 l -6.6,-0.4 9.3,-5.2 c 5.1,-2.8 10.7,-6 12.3,-7.1 3,-1.9 3,-1.9 1.4,0 -1.9,2.2 -2.4,3.9 -7.3,21.5 -1.9,6.9 -3.7,13.2 -4,14 -0.5,1.2 0.5,1.9 3.9,2.8 2.6,0.7 5,1 5.5,0.7 0.7,-0.5 6.2,-19.5 7.5,-26.5 1.4,-7.2 7.6,-10.2 12.6,-6.1 2,1.6 2.4,2.7 2.2,6.9 l -0.2,5 4.6,0.7 c 5.5,0.8 6.3,0 6.3,-6.8 0,-10.7 -8.9,-18.5 -20,-17.5 -2.8,0.3 -5,0.4 -5,0.3 0,-0.2 3.4,-2.8 7.5,-5.9 L 513,540 v 3.4 c 0,1.9 0.3,4.2 0.6,5.1 0.7,1.8 5.4,4.5 7.9,4.5 2.7,0 1.6,-3.5 -1.5,-4.7 -2.4,-0.9 -3,-1.7 -3,-4.1 0,-3.9 1.5,-4.4 11.1,-3.6 7.6,0.7 7.9,0.6 7.9,-1.5 0,-1.9 -0.6,-2.1 -5.2,-2.2 -2.9,0 -7,-0.3 -9.1,-0.7 l -3.8,-0.7 3.5,-3.4 3.6,-3.5 v 3.2 c 0,2.5 0.4,3.2 1.9,3.2 1.4,0 2.1,-0.8 2.3,-2.8 0.3,-2.4 0.7,-2.7 3.8,-2.7 h 3.5 l 0.3,9.2 c 0.2,8.5 0.4,9.3 2.2,9.3 1.8,0 2,-0.7 2,-9.4 0,-9 -0.1,-9.6 -2.6,-11.5 -1.6,-1.2 -4.1,-2.1 -6.2,-2.1 h -3.6 l 3.9,-4 c 2.2,-2.3 4.1,-3.7 4.2,-3.3 0,0.4 0.4,2 0.7,3.6 0.9,3.9 4.1,6.7 7.6,6.7 2.3,0 3,-0.4 3,-2 0,-1.4 -0.7,-2 -2.3,-2 -2.9,0 -4.7,-1.8 -4.7,-4.7 0,-2.9 2.7,-4.3 8.3,-4.3 7.6,0 10.5,-0.9 10,-3.1 -0.4,-1.5 -1.2,-1.8 -3.7,-1.5 -1.7,0.3 -5.7,0.8 -9,1.1 l -5.9,0.7 2.9,-4.1 c 1.6,-2.2 3.1,-4.1 3.4,-4.1 0.3,0 0.6,1.2 0.6,2.6 0.2,3.2 0.7,3.6 2.8,2.8 1,-0.4 1.4,-1.3 1.2,-2.3 -1,-3.2 3.1,-5.9 6.4,-4.1 1.3,0.7 2.1,3.1 3,9.5 0.8,5.8 1.6,8.5 2.5,8.5 2.3,0 2.6,-1.6 1.4,-9.4 -1.5,-9.7 -3.4,-12.4 -9.4,-12.8 l -4.5,-0.3 3.3,-4.9 3.2,-5 0.6,3.7 c 0.9,5.8 5.1,9.2 9.8,8 3.1,-0.8 2.3,-3.8 -1,-3.9 -3.6,-0.1 -4.9,-1.1 -4.9,-3.8 0,-3.2 1.4,-4.1 9.8,-6.1 6.7,-1.6 8.9,-3.3 6.3,-4.9 -0.8,-0.5 -13.3,2.3 -17.4,3.9 -1.3,0.6 -1,-0.5 1.5,-4.8 l 3.3,-5.5 0.6,2.9 c 0.4,1.7 0.9,3.2 1.1,3.5 0.9,0.8 3.8,-0.8 3.2,-1.8 -1.1,-1.8 0.6,-5.6 2.8,-6.1 3.2,-0.9 4.5,0.7 7,8.7 2.6,8.3 2.8,8.6 5,7.7 1.5,-0.5 1.4,-1.3 -0.9,-8.6 -1.4,-4.4 -3.2,-8.8 -4.1,-9.8 -1.7,-1.9 -9.6,-2.4 -10.7,-0.7 -0.3,0.6 -1,1 -1.5,1 -0.9,0 4.1,-11.9 5,-12 0.3,0 1,1.4 1.5,3.2 1.4,4.5 5.4,7.2 9.4,6.3 4.4,-1 3.9,-4 -0.7,-4 -3.4,-0.1 -5.2,-1.7 -5.2,-4.8 0,-1.3 2.2,-2.8 7.8,-5.3 9.1,-4.2 8.6,-3.9 7.5,-5.7 -0.7,-1.3 -1.8,-1.1 -7.8,1.4 -3.8,1.6 -7.9,3.4 -8.9,4 -1.6,0.9 -1.8,0.8 -1.2,-0.8 0.4,-1 1.3,-3.5 1.9,-5.6 1.2,-3.9 2.7,-4.9 2.7,-2 0,2.8 1.5,4.4 3.3,3.8 1.1,-0.5 1.4,-1.5 1,-3.9 -0.4,-2.7 -0.1,-3.4 1.9,-4.3 3.5,-1.6 4.9,-0.3 8.8,7.6 3.2,6.6 5.1,8.4 6.5,6.1 0.8,-1.3 -7.1,-16.6 -9,-17.4 -2.8,-1.1 -7,-0.7 -9.1,0.9 -1,0.8 -2.2,1.5 -2.5,1.5 -0.4,0 0.4,-3.5 1.7,-7.8 1.3,-4.2 2.4,-8.5 2.4,-9.5 0,-0.9 0.5,-1.7 1,-1.7 0.6,0 1,1.5 1,3.3 0,7.1 9.5,15.7 17.5,15.7 1.7,0 4.9,-0.9 7.3,-2 4.7,-2.1 24.3,-15.2 26.2,-17.5 1,-1.2 0.7,-2.3 -1.6,-5.9 l -2.8,-4.4 -5.5,4.2 c -18.8,14.3 -26.1,17.4 -29.5,12.4 -3.1,-4.4 -1.5,-9.5 4,-12.6 1.7,-0.9 1.6,-1.3 -1,-5.1 -1.6,-2.3 -3.3,-4.1 -3.8,-4.1 -0.5,0 -3.2,2.3 -5.9,5 -2.8,2.8 -4.8,4.3 -4.5,3.3 0.3,-1 1.3,-6.7 2.1,-12.7 0.9,-6.1 1.7,-11.1 1.9,-11.3 0.2,-0.2 0.7,0.9 1.1,2.4 0.3,1.5 3.2,6.2 6.4,10.3 3.2,4.1 7.7,10.3 10,13.7 2.3,3.5 4.4,6.3 4.6,6.3 0.3,0 2.3,-1.3 4.5,-2.9 l 4,-2.9 -2.5,-3.6 c -3.2,-4.8 -9.3,-13 -13.9,-18.6 -5.1,-6.4 -4.7,-10.7 1.4,-14 2.4,-1.3 5.8,0 8.9,3.4 l 2.5,2.6 3.8,-3.7 3.8,-3.7 -3.7,-3.8 c -6.5,-6.7 -15.5,-7.3 -23.3,-1.7 -2.3,1.7 -4.8,4.6 -5.6,6.6 -0.9,1.9 -1.6,3.4 -1.8,3.2 -0.1,-0.2 0,-4.8 0.2,-10.2 l 0.4,-9.8 2.5,2.6 c 3.4,3.3 8.1,3.4 11.2,0.2 2,-2.2 2,-2.5 0.5,-3.8 -1.4,-1.1 -1.7,-1.1 -2.5,0.4 -1.8,3.2 -7.9,1.5 -7.9,-2.1 0,-0.8 2.5,-4.4 5.7,-7.9 4.4,-5.1 5.3,-6.7 4.2,-7.4 -2.1,-1.3 -2.2,-1.3 -8,5.5 -3,3.6 -5.7,6.5 -6.1,6.5 -0.5,0.1 -0.8,-2.2 -0.8,-5.1 v -5.1 l 2.3,2.2 c 2.2,2 2.5,2 3.8,0.5 1.1,-1.4 1.1,-1.8 -0.4,-2.9 -3.1,-2.3 -1.5,-7.5 2.3,-7.5 0.9,0 4.4,2.3 7.9,5.1 5.1,4.1 6.5,4.8 7.7,3.8 1.8,-1.5 1,-2.5 -6.8,-8.4 -7.3,-5.5 -10.7,-5.8 -14.8,-1.5 l -2.8,3 -0.9,-5.2 c -0.5,-2.9 -0.8,-5.4 -0.7,-5.6 0.1,-0.2 1.7,0.6 3.5,1.7 3.6,2.2 7.1,2 10.2,-0.7 3.7,-3.3 0.9,-6.2 -3.1,-3.1 -1.9,1.5 -2.8,1.6 -4.8,0.7 -3.4,-1.6 -3,-3.4 2.1,-11.3 3.4,-5.1 4.2,-7.1 3.3,-7.7 -2.2,-1.3 -2.5,-1 -7.4,6.8 -5.1,7.9 -5.3,8 -6.7,0.6 -0.7,-3.2 -0.6,-3.3 1.5,-1.7 2.8,1.9 3.4,1.9 4.2,-0.1 0.4,-1 -0.3,-2.3 -1.6,-3.4 -2,-1.5 -2.1,-2.1 -1,-4.4 1.4,-3.2 4.4,-3.4 9.2,-0.5 1.9,1.2 4.9,3 6.7,4.1 3.1,1.8 3.2,1.8 4.2,0 0.9,-1.6 0.1,-2.4 -6.3,-6 -4.1,-2.3 -8.5,-4.2 -9.8,-4.2 -2.9,0 -7.8,3.5 -7.8,5.6 0,2.9 -1.7,1.3 -2.9,-2.7 -0.7,-2.3 -1.5,-4.8 -1.8,-5.6 -0.5,-1.3 -0.2,-1.3 2.5,0.1 1.7,0.9 4.3,1.6 5.7,1.6 2.6,0 7.5,-3.9 7.5,-6 0,-2.2 -3,-2.2 -4.8,0 -1.4,1.8 -2.5,2.1 -4.4,1.7 -4,-1 -4,-3 -0.3,-11.1 1.9,-4.1 3.5,-7.7 3.5,-7.9 0,-0.3 -0.8,-0.7 -1.8,-0.9 -1.5,-0.4 -2.6,1.1 -5.7,8.3 l -3.9,8.8 -2.3,-5.6 c -2.8,-6.8 -2.8,-7 -0.5,-5.1 2.7,2.4 5,2.8 5.6,1.1 0.7,-1.8 -0.1,-3.3 -1.9,-3.3 -2.1,0 -2.7,-3.1 -1,-5.6 0.9,-1.3 2,-2.4 2.5,-2.4 0.8,0 8.9,2.9 15.1,5.5 1.1,0.4 1.8,0 2.2,-1.4 0.4,-1.7 -0.6,-2.4 -7.5,-5.1 -4.4,-1.6 -8.6,-3 -9.5,-3 -2.8,0 -5.5,2.2 -7.2,6 l -1.7,3.9 -2.7,-5.5 c -3.2,-6.5 -3.3,-6.8 -0.8,-5.4 3.7,1.9 8.8,1.2 11,-1.6 1.2,-1.5 2.1,-3.3 2.1,-4 0,-2.1 -3.4,-2.1 -4.5,0.1 -1.2,2.4 -5.7,3.2 -7.3,1.2 -0.9,-1.1 -0.6,-3.3 1.2,-9.5 2.3,-8 2.3,-8.2 0.4,-8.8 -1.1,-0.3 -2,-0.4 -2.2,-0.2 -0.6,1 -3.9,14.7 -4,16.5 -0.1,1.3 -0.2,2.3 -0.3,2.3 -0.3,0 -6.3,-10 -6.3,-10.6 0,-0.2 0.9,0 1.9,0.6 3.1,1.6 5.1,1.2 5.1,-1 0,-1.1 -0.6,-2 -1.4,-2 -3.6,0 -4.6,-7 -1.2,-8.3 0.8,-0.3 5,0.3 9.3,1.3 5.8,1.4 8,1.5 8.5,0.7 1.7,-2.6 1.4,-2.8 -9.6,-5.1 -9.6,-2 -13.1,-0.3 -14.2,6.5 l -0.6,3.9 -4.9,-6.9 c -2.7,-3.8 -5.3,-7.2 -5.9,-7.6 -0.5,-0.3 -1,-1 -1,-1.5 0,-0.6 1.5,-0.1 3.3,1 4.7,2.9 14.3,2.8 18.7,-0.3 7.2,-4.8 8.6,-9.3 9.6,-30.3 l 0.7,-13.1 -3.3,-0.6 c -5.3,-1.1 -8,-0.9 -7.4,0.7 1.1,2.7 -1.6,30 -3.2,32.4 -2,3 -5.2,4.2 -8.7,3 -3.4,-1.3 -4.7,-3.6 -4.7,-8.7 V 214 h -5 -5 v 4.9 c 0,2.7 0.5,6.2 1.1,7.8 0.7,1.8 -2.1,-0.5 -8.4,-7.2 -5.2,-5.5 -9.3,-10.1 -9.2,-10.3 0.2,-0.2 1.4,0.2 2.7,0.9 3.2,1.7 36,3.1 37,1.5 0.4,-0.6 0.8,-2.8 0.8,-4.8 0,-4.7 -0.1,-4.7 -18.5,-5.2 -15,-0.4 -17,-0.8 -18.5,-3.7 -2.9,-5.2 0.2,-10.2 6.9,-11.4 4.4,-0.7 4.7,-1.4 3.5,-7.4 -0.5,-2.5 -1.1,-3.1 -3.3,-3.1 -7.3,0 -14.6,4.9 -17,11.3 -1.6,4.1 -1.3,11.3 0.4,14.7 0.9,1.7 1.3,3 1.1,3 -0.3,0 -3.3,-2.5 -6.8,-5.5 -3.4,-3 -6.6,-5.5 -7,-5.5 -0.5,0 -0.8,-0.5 -0.8,-1 0,-0.6 1.3,-1 2.9,-1 4.2,0 7.2,-2.9 7.4,-7 0.2,-2.9 -0.2,-3.6 -2,-3.8 -1.7,-0.3 -2,0.1 -1.6,1.7 0.7,2.9 -1.4,5.1 -4.8,5.1 -3.1,0 -3.2,-0.2 -4.9,-10.6 -1,-6.3 -1.4,-7.1 -3.1,-6.7 -1,0.3 -1.9,0.6 -1.9,0.7 0,0 0.7,3.9 1.5,8.5 0.8,4.7 1.3,8.6 1.2,8.7 -0.2,0.2 -2.3,-1 -4.7,-2.6 l -4.5,-3 h 3.3 c 2.5,0 3.2,-0.4 3.2,-1.9 0,-1.5 -0.8,-2.1 -3.1,-2.3 -2.2,-0.2 -3.4,-1 -4,-2.6 -1.3,-3.5 1.8,-5.8 10,-7.2 5.8,-1.1 7.1,-1.7 7.1,-3.2 0,-2.4 -2.6,-2.3 -11.5,0.1 -8.3,2.3 -9.8,4 -9.2,10.2 l 0.4,4.7 -5,-3.1 -5,-3.1 3.2,-1.1 c 4.1,-1.4 6.1,-4 6.1,-8 0,-3.8 -0.5,-4.4 -2.9,-3.8 -1.3,0.3 -1.7,1.1 -1.3,2.9 0.5,3 -1.3,5.4 -4.3,5.4 -2.3,0 -2.4,-0.2 -6,-10.5 -2.1,-6 -2.6,-6.7 -4.4,-5.6 -1.1,0.7 -0.8,2.4 1.4,9 1.5,4.5 2.5,8.4 2.4,8.6 -0.2,0.2 -2.4,-0.7 -4.8,-1.9 -4.4,-2.3 -4.4,-2.3 -1.8,-3 1.8,-0.4 2.7,-1.3 2.7,-2.6 0,-1.6 -0.5,-1.9 -2.8,-1.4 -3.3,0.7 -5.5,-1.4 -5,-4.8 0.2,-1.8 1.8,-2.9 7.8,-5.3 4.1,-1.6 7.7,-3 7.8,-3.1 0.2,-0.2 0.1,-1.2 -0.3,-2.3 -0.6,-1.9 -0.9,-1.9 -8.8,1.5 -4.5,1.9 -8.8,4.2 -9.4,5.1 -1.6,2 -1.7,6.7 -0.3,9.4 1.3,2.4 1.3,2.4 -5.7,-0.3 l -5.8,-2.2 3.2,-0.8 c 5.6,-1.5 8.7,-7.3 6.3,-11.8 -1.6,-3 -4.2,-1.4 -3.5,2 0.7,3.2 -1.5,6 -4.6,6 -1.4,0 -2.9,-2 -5.6,-7.5 -3.5,-7.1 -5.4,-8.8 -6.8,-6.5 -0.3,0.5 1.3,4.7 3.7,9.3 l 4.3,8.3 -5.2,-1.6 c -6.6,-2 -7.1,-2.6 -3.3,-3.4 2.3,-0.4 3.1,-1.1 2.8,-2.3 -0.3,-1.4 -1.2,-1.7 -4,-1.5 -2.9,0.3 -3.9,-0.1 -4.8,-1.8 -1.7,-3.2 -0.8,-4.4 6.9,-9 7.3,-4.4 7.6,-4.7 6.3,-6.7 -0.6,-0.9 -2.8,-0.1 -8.4,3.2 -4.2,2.5 -8,5 -8.3,5.6 -1.6,2.6 -0.8,7.9 1.6,10.5 l 2.4,2.7 -2.5,-0.6 c -1.4,-0.3 -4.4,-0.9 -6.7,-1.3 -2.4,-0.4 -4.3,-1 -4.3,-1.5 0,-0.5 0.5,-0.9 1,-0.9 2.3,0 6,-5 6,-8 0,-4.4 -1.9,-7.1 -4,-5.7 -1.4,0.8 -1.5,1.5 -0.7,3.8 0.8,2 0.8,3.1 -0.2,4.3 -2.7,3.2 -5.4,1.8 -10,-4.9 -4.2,-6.2 -6.3,-7.7 -7.6,-5.5 -0.6,1 4.6,9 9.4,14.4 2.3,2.5 2.4,2.8 0.6,2.3 -1.1,-0.3 -4.2,-0.9 -6.8,-1.3 l -4.8,-0.6 3.2,-2 c 2.9,-1.8 3.1,-2.1 1.5,-3.6 -1.2,-1.3 -1.8,-1.3 -2.8,-0.4 -0.7,0.7 -1.8,1.2 -2.4,1.2 -1.7,0 -4.4,-2.8 -4.4,-4.5 0,-1.7 4,-5.7 9.3,-9.2 3.7,-2.6 4.6,-4.6 2.7,-5.8 -1.4,-0.9 -5,1.6 -11.1,7.4 -5.7,5.5 -6.2,8.4 -2.3,13 l 2.6,3.1 -4.9,-0.1 c -5,-0.1 -15.9,-1.5 -13.3,-1.8 0.9,0 3.2,-1.2 5.3,-2.6 7.7,-5.3 10.1,-16.6 5.1,-24.1 C 382,116.9 370,105 362.4,98.7 l -3.1,-2.6 z m 51.2,57.7 c 21,3.8 39.3,9.8 58.1,19.2 55.7,27.5 95.5,75.4 112.8,135.4 9.2,32.2 10,74.4 1.9,107.7 -18.6,77.1 -78.8,138.5 -155.4,158.4 -21.7,5.7 -55.3,8.1 -77,5.6 -65.9,-7.7 -122.8,-43 -158.5,-98.6 -7.7,-11.9 -17.5,-32.2 -22.4,-46.8 -14.8,-43.4 -15,-92.1 -0.4,-136.1 26.3,-79.2 96.1,-136.3 179.3,-146.5 12.7,-1.6 48.9,-0.6 61.6,1.7 z"
       id="path46"
       style="fill:currentColor;stroke:none;stroke-width:0.1" />
    <path
       d="M 344,62.7 C 341.5,62.9 333,64 325,65.1 215.9,80.7 122.6,155.3 82.3,259 62.9,309.1 57,367.8 66.1,421.3 c 21,124 114.5,222.5 236.9,249.7 36.5,8.2 81.9,9.3 118.9,2.9 91.3,-15.6 169.8,-70.6 216.1,-151.3 19.3,-33.6 31.4,-69.4 37.7,-111.1 2.5,-17.2 2.5,-65.8 0,-83 -13.6,-90.8 -61,-166 -136.2,-216.2 C 498.6,85.1 449.1,67.8 398.5,63 388.4,62.1 354.8,61.9 344,62.7 Z m 48.6,6.3 c 61.2,4.9 117.4,27 165.7,65.2 12.8,10.1 36.9,34.2 47.1,47 57.6,72.3 79.2,165.7 59,255.6 -9.6,42.7 -31.1,87.2 -59,122.2 -9.6,12.1 -35,37.3 -47.3,46.9 -45.5,35.9 -96.6,57.1 -155.1,64.3 -13.6,1.7 -52.5,1.6 -66,0 -72,-9 -133.4,-39.1 -182.6,-89.4 C 104.1,529.4 75,465.1 69.1,392.7 64.6,338 76.8,278.8 102.7,230 117.6,202 134,179.9 156.9,156.9 196.6,117.3 243,90.8 296,77.5 c 18.4,-4.6 33.4,-7 55.5,-8.8 9.3,-0.8 29.1,-0.6 41.1,0.3 z"
       id="path41"
       style="fill:currentColor;stroke:none;stroke-width:0.1" />
    <path
       d="M 341,71.1 C 281.4,77.6 228.3,99.2 182.5,135.4 171,144.5 146.2,169 137.3,180 113.4,209.8 95,243.9 83.7,279.8 c -13.9,43.9 -17.3,94.3 -9.6,140.6 18.4,109.4 96.8,200.5 202.4,234.9 30.8,10.1 60.3,14.7 94,14.7 68.3,0 132.5,-22.4 186.5,-65 12.4,-9.8 37.8,-35 47.4,-47 8.8,-11.1 22,-30.9 29.1,-43.8 C 673.9,440.7 681.2,351 653.4,271 628.9,200.4 578.9,141.8 512.5,105.8 482.4,89.4 448.6,78.2 413.5,72.9 397.5,70.5 355.8,69.5 341,71.1 Z m 23,6.1 c -7.3,2.9 -10.2,5.2 -20.6,16.2 -6.2,6.5 -11.2,12.2 -10.9,12.6 0.2,0.4 2.2,1.9 4.3,3.4 l 3.9,2.6 10.9,-11.1 c 12.3,-12.5 15.1,-14.4 20,-13.4 6.9,1.2 8.4,7.8 3,12.8 l -3.5,3.2 4.3,3.7 4.4,3.7 4.5,-4.8 c 5.6,-6 6.8,-11.3 4.1,-18 -1.7,-4.4 -8.1,-10.1 -11.3,-10.1 -0.9,0 -2.3,-0.5 -3.1,-1 -1.9,-1.2 22.8,-0.1 25,1.1 1.2,0.7 1.1,0.8 -0.6,0.9 -1.2,0 -3.3,1.1 -4.8,2.5 -3.3,3.1 -3.4,7.4 -0.3,10.3 2,1.9 2.6,2 4.1,0.9 1.6,-1.2 1.6,-1.4 0.2,-2.6 -3.3,-2.8 -1.2,-7.1 3.5,-7.1 2,0 4,1.5 8.5,6.7 3.2,3.8 5.9,7 6,7.2 0.2,0.1 1.2,-0.4 2.4,-1.2 2.1,-1.4 2,-1.6 -5.9,-9.7 -5.4,-5.5 -7.2,-8 -5.8,-7.7 1.2,0.3 4.8,0.9 8,1.2 3.1,0.4 5.7,1.1 5.7,1.6 0,0.5 -0.7,0.9 -1.5,0.9 -0.8,0 -2.4,0.5 -3.5,1.2 -1.8,1.1 -1.8,1.4 -0.3,3 1.4,1.6 1.8,1.6 4.4,0.3 2.6,-1.4 3,-1.3 5.5,0.8 1.6,1.4 2.5,3 2.2,3.9 -0.3,0.8 -3.9,3.4 -8,5.8 -4,2.4 -7.4,4.4 -7.6,4.5 -0.6,0.5 1.1,3.5 1.9,3.5 0.5,0 4.6,-2.1 9,-4.7 11,-6.4 12.2,-9.8 5.7,-16.2 l -3.1,-3 3.4,0.9 c 1.9,0.5 6,1.4 9.3,2 l 5.9,1.2 -4.2,1.8 c -5.5,2.5 -7,5.9 -4.8,10.5 1.8,3.7 2.3,4 4.7,2.5 1.2,-0.8 1.3,-1.3 0.3,-3 -1.8,-2.8 -1.6,-3.7 1.1,-5.5 3.5,-2.3 5.9,-0.7 11.4,7.9 3.4,5.1 5.2,7.1 6.5,6.8 0.9,-0.2 1.7,-0.8 1.7,-1.3 0,-1.7 -10.1,-16.9 -11.3,-16.9 -0.6,0 -0.8,-0.3 -0.5,-0.6 0.3,-0.3 3.9,0.5 7.9,1.7 4.1,1.2 6.7,2.5 5.9,2.7 -5.7,1.8 -6.1,2.1 -5,4.2 0.9,1.6 1.5,1.8 3.6,1 3.3,-1.3 6.2,0.2 7,3.6 0.4,1.4 0.4,2.7 0.1,3 -0.2,0.3 -4,2 -8.3,3.8 -7.9,3.3 -9,4.2 -7.6,6.3 0.9,1.4 18,-5.1 19.9,-7.6 2,-2.6 1.5,-6.7 -1.3,-10 C 469,94.4 468,93 468.2,93 c 0.2,0 4.4,1.6 9.3,3.6 29.3,11.8 54,26.3 77.2,45.3 12.4,10.1 14,11.8 8.5,8.9 -7.7,-4 -19,-0.9 -22.8,6.3 -2,3.9 -2,8.2 -0.4,26.6 l 1.3,15.3 h 5 5 l -0.8,-14.8 c -1.1,-20.3 -1.1,-20.3 1.5,-22.4 3.1,-2.5 6.5,-2.2 10,0.9 2.3,2 3.3,4 3.7,7 0.5,3.6 0.9,4.3 2.8,4.3 1.2,0 3.7,0.3 5.5,0.7 l 3.3,0.6 -0.6,-5.3 c -0.4,-2.8 -1.6,-6.8 -2.7,-8.7 -1.1,-2 -1.9,-3.7 -1.7,-4 0.5,-0.4 14.3,14.1 20.7,21.7 3.9,4.7 4.1,5.2 1.5,3.3 -1.7,-1.1 -4.8,-2.6 -7,-3.1 -5.1,-1.4 -21.8,-3.2 -29,-3.2 H 553 v 4.9 c 0,5.6 0.6,6.1 7.8,6.1 2.6,0 9.7,0.7 15.7,1.5 10.1,1.3 11.2,1.7 13.8,4.5 5.7,6.3 1.6,13.8 -6.9,12.5 l -4.2,-0.6 -0.4,5.2 c -0.4,6.1 0,6.3 8.9,6.4 6.6,0 9.8,-1.5 13.6,-6.7 2.7,-3.6 3.3,-11.4 1.3,-16.2 -0.9,-2.2 -1.5,-4.1 -1.3,-4.2 0.4,-0.4 15.7,21.2 15.7,22.2 0,0.4 -0.8,0 -1.8,-0.9 -5,-4.5 -13.2,-1.8 -13.2,4.4 0,1.6 0.2,2.9 0.4,2.9 0.2,0 1.1,0.3 2,0.6 1.1,0.4 1.6,0 1.6,-1.4 0,-5 7.4,-5.4 8.6,-0.5 0.4,1.5 0,6.3 -0.8,10.7 -0.9,4.5 -1.5,8.2 -1.4,8.3 0,0 1,0.3 2.1,0.5 1.7,0.2 2.2,-0.6 3.2,-5.7 0.7,-3.3 1.4,-8.1 1.5,-10.8 0.1,-2.6 0.3,-4.7 0.4,-4.7 0.2,0 7.6,12.8 8.3,14.4 0.2,0.6 -0.9,0 -2.4,-1.2 -3.7,-2.9 -5.5,-2.8 -5.5,0.3 0,1.5 0.6,2.5 1.5,2.5 2.1,0 4.5,4.2 3.9,6.7 -0.9,3.5 -3.2,3.5 -11.6,0.3 -4.3,-1.7 -8.3,-2.8 -8.9,-2.4 -2.3,1.4 0,3.8 6.1,6.1 12.2,4.7 16.2,4.4 18,-1.2 0.7,-2 0.9,-4.2 0.6,-5 -0.3,-0.8 -0.2,-1.5 0.2,-1.5 0.7,0 8.2,14.3 8.2,15.5 0,0.3 -1.5,-0.4 -3.2,-1.5 -6,-3.6 -10.8,-2 -12.3,4.1 -0.5,2 -0.2,2.8 1.2,3.3 0.9,0.4 1.9,0.3 2.1,-0.2 0.1,-0.5 0.9,-1.8 1.6,-2.8 1.2,-1.5 1.9,-1.7 4.3,-0.9 3.8,1.4 4,5 0.8,14.4 -1.9,5.8 -2.2,7.7 -1.3,8.3 0.7,0.4 1.6,0.8 1.9,0.8 1.5,0 7.3,-17.6 6.3,-19.1 -0.3,-0.5 -0.2,-0.9 0.3,-0.9 0.7,0 4,7.7 5.8,13.5 0.6,1.8 0.5,1.8 -0.7,0.4 -0.7,-0.9 -2.3,-2.1 -3.5,-2.7 -1.8,-1 -2.3,-0.9 -2.8,0.8 -0.4,1.4 0.2,2.7 2.1,4.3 2.2,1.9 2.6,2.9 2,5.1 -1.1,4.3 -3.2,4.2 -11.8,-0.4 -6.4,-3.4 -8.2,-4 -8.9,-2.9 -0.5,0.8 -0.9,1.6 -0.9,1.9 0,1 16.8,10 18.8,10 3.2,0 6.1,-3.2 7,-7.5 l 0.8,-4 3.1,10 c 8.5,26.6 13.4,59.5 13.2,88.5 0,13.7 -1.1,19.4 -2.2,12.2 -0.9,-5.5 -7.6,-12.7 -12.8,-13.7 -7.3,-1.4 -10.9,0.7 -25.3,14.2 l -13.4,12.7 3,3.8 c 2.3,2.8 3.5,3.5 4.7,2.8 0.9,-0.4 6.9,-5.6 13.4,-11.4 12.8,-11.5 15.1,-12.5 18.6,-8 3.1,3.9 2.7,8.6 -1,12.9 l -3.1,3.5 2.9,4.5 c 1.5,2.5 3.1,4.5 3.4,4.5 1.3,0 7.2,-7.4 8.5,-10.7 0.8,-1.8 1.6,-3.3 1.9,-3.3 0.5,0 0.2,2.4 -2.7,21 l -2.2,14.5 -1.2,-5.2 c -1.3,-5.7 -3.8,-10.4 -12.4,-23.3 -7.8,-11.6 -7.7,-11.5 -12.4,-7.5 l -3.9,3.3 3.5,4.8 c 7.7,10.7 14.1,22 14.5,25.9 0.7,5.8 -2.5,9.7 -7.6,9.3 -2.9,-0.2 -4.1,-1 -6,-4 -2.3,-3.5 -2.5,-3.6 -5,-2.3 -6.4,3.3 -6.6,3.7 -4.3,8.2 5.2,10.1 15.4,13.1 24.9,7.2 1.8,-1.2 4.3,-3.9 5.4,-6.1 1.1,-2.2 2.2,-3.8 2.4,-3.6 0.7,0.7 -6.9,25.8 -7.8,25.8 -0.4,0 -0.6,-0.4 -0.2,-1 1,-1.7 -2.3,-8 -4.9,-9.1 -3.6,-1.7 -8.8,0.5 -8.4,3.5 0.2,1.3 0.9,1.9 1.8,1.7 3.7,-1 5.5,-0.5 6.7,1.9 1.8,3.6 0.1,5.5 -8.8,10.4 -6.2,3.5 -7.3,4.5 -7.1,6.4 0.3,2.3 0.4,2.2 8,-1.8 4.2,-2.3 8.7,-5.1 10,-6.3 1.2,-1.1 2.2,-1.9 2.2,-1.6 0,0.9 -5.7,14.9 -6.3,15.6 -0.4,0.3 -0.7,-0.7 -0.7,-2.3 0,-3.8 -1.3,-5.6 -3.3,-4.8 -1.3,0.5 -1.6,1.4 -1.1,4.4 0.5,3.3 0.3,4 -1.8,5.4 -3.9,2.6 -5.5,1.1 -8.4,-7.7 -3.3,-10.2 -3.1,-9.9 -5.4,-8.7 -1.8,1 -1.7,1.4 1.2,10.2 1.7,5.1 3.5,9.9 4.1,10.6 1.5,1.9 8.1,1.5 11.1,-0.9 1.4,-1.1 2.6,-1.9 2.6,-1.6 0,0.6 -7.9,16.7 -8.2,16.7 -0.2,0 -0.4,-1.9 -0.5,-4.2 -0.1,-3 -0.8,-4.8 -2.3,-6 -3.9,-3.2 -10,-2.1 -10,1.7 0,2.1 0.3,2.3 3.5,1.8 3,-0.5 3.6,-0.2 4.4,1.8 1.5,4.2 -0.1,6 -8,9.1 -4,1.5 -7.9,2.8 -8.6,2.8 -0.7,0 -1.3,1.1 -1.3,2.5 0,1.4 0.3,2.5 0.8,2.5 1.7,0 15.8,-5.4 17.3,-6.7 3,-2.6 2.8,-1.2 -1.2,5.7 -2.3,3.9 -4.2,7 -4.3,7 -0.1,0 -0.2,-1.6 -0.2,-3.5 0,-4 -0.5,-4.8 -2.7,-3.9 -1,0.3 -1.7,2 -1.9,4.2 -0.2,2.7 -0.9,4 -2.7,4.9 -4.4,2.1 -5.7,0.3 -7.1,-9.7 -1,-7.1 -1.6,-9 -2.7,-8.5 -0.8,0.3 -1.8,0.5 -2.2,0.5 -0.4,0 0,4.6 0.9,10.2 1.9,10.8 3.1,12.8 7.9,12.8 1.4,0 3.9,-0.7 5.4,-1.5 3.1,-1.6 3.2,-1.7 -2.7,7 -15.5,23.2 -40.5,49.7 -62.4,66.3 -11.7,8.9 -12.1,9.2 -9.2,5 4.1,-5.8 5,-13.7 2.2,-18.8 -2.6,-4.8 -7.2,-7.7 -13.5,-8.5 -6.3,-0.8 -22.9,-3.2 -27.8,-4.1 -3.5,-0.6 -3.6,-0.5 -4.2,2.7 -0.3,1.9 -0.8,4.1 -1.2,5 -0.5,1.4 1.1,2 10.7,3.7 6.2,1.1 13.6,2.4 16.3,2.7 6.3,0.9 8.3,2 9.5,5.1 2.2,5.7 -3.1,10.8 -10.9,10.5 l -4.7,-0.1 -1.6,4.9 c -1.4,4.3 -1.4,5 -0.1,5.5 2.5,1 12.3,0.6 14.5,-0.5 1.5,-0.8 1.9,-0.8 1.4,0 -0.7,1.1 -19.1,12.3 -26.6,16.1 l -4.4,2.2 4,-4.5 c 3.1,-3.6 4.9,-7.2 8.2,-16.9 2.2,-6.7 4.5,-14.2 5,-16.4 l 0.9,-4.2 -5.1,-0.7 c -3.3,-0.4 -5.2,-0.3 -5.4,0.5 -10.1,30.1 -11.7,33.4 -17.7,34.6 -2.3,0.4 -3.8,0 -5.9,-1.7 -2.9,-2.3 -3,-3.5 -1.1,-10.9 0.6,-2.3 0.3,-2.6 -4,-3.8 -2.6,-0.7 -5,-1 -5.4,-0.7 -0.5,0.2 -1.6,2.9 -2.5,5.9 -3.9,12.4 3.4,21.7 17.1,21.7 3,0 5.3,0.2 5.1,0.4 -0.5,0.5 -22.6,9.5 -23.4,9.5 -0.4,0 0.2,-1 1.4,-2.3 1.2,-1.3 2.5,-3.7 2.8,-5.4 0.5,-2.6 0.1,-3.7 -1.9,-5.7 -1.5,-1.4 -3.5,-2.6 -4.5,-2.6 -2,0 -4,3.2 -2.4,3.8 0.5,0.1 1.8,0.9 2.8,1.7 1.8,1.3 1.8,1.6 0.4,4.2 -0.9,1.5 -2.5,2.9 -3.6,3.1 -1.1,0.2 -5.7,-1.3 -10.2,-3.2 -7.9,-3.4 -8.2,-3.5 -9.2,-1.5 -1,1.7 -0.6,2.2 3.7,4 10.4,4.5 11.6,4.9 14.1,4.9 3.8,0 2.3,0.8 -6.2,3.4 l -7.6,2.4 2.6,-3.1 2.6,-3.1 -2.1,-1 c -1.7,-0.7 -2.6,-0.5 -4.2,1.2 -2.2,2.4 -4,2.7 -7,1.2 -2.8,-1.6 -2.4,-3.3 2.6,-10.8 4.9,-7.2 5.3,-8.7 3,-9.6 -1.9,-0.7 -12.5,14.7 -12.5,18.2 0,3 4.6,7.2 7.8,7.2 4.1,0 1.6,1.3 -6.1,3.2 -9.5,2.3 -10.5,2.2 -7.3,-0.3 3.5,-2.8 4.8,-6.2 3.6,-9.4 -1.3,-3.4 -5.4,-5.3 -7.5,-3.5 -1.4,1.2 -1.3,1.6 1.1,3.5 2.7,2.2 2.8,2.3 1.1,4.9 -2.5,3.7 -5.1,3.3 -13.7,-1.9 -6.6,-4.1 -7.5,-4.4 -8.9,-3.1 -0.8,0.9 -1.3,1.7 -1,1.9 2.6,2.2 10.8,7.2 14.1,8.7 3.9,1.7 4,1.9 1.8,2.4 -5.6,1.2 -13,2.3 -13,1.9 0,-0.3 1.1,-1.4 2.5,-2.5 1.4,-1.1 2.5,-2.3 2.5,-2.8 0,-1.6 -3.3,-2 -5,-0.5 -3.2,2.9 -9,1.3 -9,-2.4 0,-0.8 2.7,-4.4 5.9,-8.1 4.5,-5 5.7,-7 4.8,-7.9 -1.9,-1.9 -3,-1.2 -9.4,6.1 -7.3,8 -8,11.3 -3.7,15.3 1.5,1.4 3.4,2.5 4.3,2.6 0.9,0 0.3,0.5 -1.4,1 -5.5,1.6 -32.5,2.2 -48,1 -24.1,-1.9 -39,-4.5 -59.7,-10.3 l -4.3,-1.2 6.3,-0.6 c 10.4,-1.1 15.7,-6.5 15.6,-15.8 0,-5.2 -0.6,-6.7 -7,-17.2 -3.8,-6.3 -7.7,-13.4 -8.8,-15.7 l -1.8,-4.1 -4.6,1.9 c -2.6,1.1 -4.8,2.2 -5,2.4 -0.5,0.4 5,11.1 10.8,20.9 6.3,10.6 6.5,13.7 1.1,16.5 -4.7,2.5 -9.6,0.2 -13.6,-6.3 -0.9,-1.6 -1.3,-1.6 -5.7,0 -2.7,0.9 -4.8,2.1 -4.8,2.7 0,2 3.7,7 7.7,10.5 l 3.8,3.2 -8.2,-2.9 c -9.3,-3.4 -25.6,-10 -26.3,-10.8 -0.2,-0.2 1.8,-0.1 4.6,0.2 4.3,0.6 6.7,0.2 15.6,-2.9 5.8,-2 13.5,-4.8 17.1,-6.4 l 6.6,-2.8 -2.6,-4.4 c -1.4,-2.5 -2.7,-4.6 -2.8,-4.8 -0.1,-0.1 -2.4,0.7 -5.1,1.8 -9.8,4.3 -24.7,9 -28,9 -6.3,0 -10.3,-6.6 -7.4,-12 0.6,-1.1 2.8,-2.5 5.1,-3.1 2.2,-0.7 3.8,-1.7 3.6,-2.3 -0.2,-0.6 -1,-2.8 -1.8,-4.9 -1.4,-4.1 -1.7,-4.2 -7.1,-2.7 -4.4,1.3 -9.3,5.2 -11.3,9.1 -3.1,6 -0.6,16.3 5,20.7 4.8,3.8 1.4,2.4 -10.5,-4.3 L 215.5,620 h 4.8 c 7,0 9.8,-3.3 8.1,-9.8 -0.4,-1.4 -1.4,-2.2 -2.8,-2.2 -1.9,0 -2.1,0.4 -1.8,3.5 0.4,3 0.1,3.5 -2.2,4.1 -5.2,1.3 -6,0.2 -9.6,-12.3 -2.1,-7.4 -2.5,-7.9 -4.8,-6.4 -1.1,0.7 -1,2.3 0.8,8.7 1.2,4.4 2.9,9 3.7,10.3 1.7,2.7 1.7,2.7 -6.9,-3.1 -3.2,-2.1 -5.8,-4 -5.8,-4.2 0,-0.2 1.8,-0.2 4,0.1 3,0.4 4,0.2 4,-0.8 0,-2.4 -1.6,-4 -3.3,-3.3 -1.6,0.6 -6.7,-3.5 -6.7,-5.5 0,-2.5 3.3,-3.8 11,-4.4 4.5,-0.3 8.4,-0.8 8.7,-1.1 0.3,-0.3 0.3,-1.2 -0.1,-2.1 -0.5,-1.4 -1.8,-1.6 -9.8,-1 -11.9,0.9 -14.1,2.2 -13.6,7.8 0.3,2.3 0.9,5.1 1.3,6.2 0.9,2 -1.3,0.5 -10.3,-7.2 l -3.4,-2.8 4.5,0.3 c 5.6,0.5 8.7,-2.1 8.7,-7.1 0,-4 -0.5,-4.6 -3.1,-4 -1.3,0.4 -1.8,1.1 -1.4,2.3 0.6,1.9 -1.8,5 -4,5 -3.4,0 -5.4,-3.5 -6.5,-11.3 -0.5,-4.3 -1,-8.2 -1,-8.7 0,-0.4 -1,-1 -2.1,-1.3 -2.1,-0.6 -2.1,-0.4 -1.4,7.5 0.3,4.5 1.1,9.2 1.6,10.6 0.5,1.4 0.8,2.6 0.7,2.7 -0.2,0.2 -3,-2.1 -6.3,-5 l -6,-5.4 4.3,0.6 c 3.8,0.5 4.2,0.4 4.2,-1.6 0,-1.5 -0.6,-2.1 -2.2,-2.1 -4.4,0 -7.6,-5.8 -4.7,-8.7 0.7,-0.7 4.3,-0.9 10,-0.5 8.4,0.4 8.9,0.4 8.9,-1.5 0,-1.9 -0.9,-2.1 -10.2,-2.8 l -10.2,-0.7 -2.4,2.8 c -2.4,2.7 -2.5,4.4 -0.7,9.9 0.9,2.7 -9.8,-8.6 -19.9,-21 -15.3,-18.8 -31.5,-45.3 -40.1,-65.4 l -3.5,-8.4 3.9,4 c 6.5,6.8 15.4,8.1 22.1,3.3 3.6,-2.6 4.9,-5 9.4,-17.2 1.8,-5.1 4.5,-11.9 5.9,-15.1 l 2.6,-5.7 -3.9,-2 c -2.2,-1.1 -4.3,-2 -4.9,-2 -1,0 -9.1,18 -11.1,24.7 -2.6,8.7 -8.6,11 -13.5,5.1 -2.7,-3.2 -2.9,-5.8 -1,-12.3 0.5,-1.6 -0.4,-2.6 -4,-4.8 l -4.6,-2.7 -1.6,3.7 c -0.9,2.1 -1.7,6.2 -1.7,9 0,2.9 -0.1,5.3 -0.2,5.3 -0.8,0 -10.4,-30.8 -10.4,-33.4 0,-0.6 0.8,0.2 1.9,1.9 1,1.6 3,4 4.3,5.3 3.8,3.5 29.1,18.3 29.8,17.4 0.4,-0.4 1.5,-2.7 2.5,-5.1 1.4,-3.2 1.6,-4.6 0.8,-4.8 -3.1,-1.1 -23.6,-14 -26.8,-16.8 -2.6,-2.4 -3.5,-4.1 -3.5,-6.5 0,-8.4 6.2,-10.9 13.6,-5.5 2.1,1.5 2.3,1.4 4.9,-3 l 2.7,-4.7 -2.3,-1.6 c -7.8,-5.9 -15.1,-6.9 -20.9,-3 -4.9,3.4 -7.1,6.9 -7.9,12.9 -0.4,3 -1,4.7 -1.4,3.9 C 81.8,428.6 79,411.8 79,408.5 v -3 l 1.9,3.2 c 3.3,5.2 10.4,5.4 13.1,0.2 0.9,-1.5 0.8,-2.4 -0.1,-3.5 -1,-1.3 -1.5,-1.2 -3.4,0.6 -2.6,2.4 -3.3,2.5 -5.7,0.3 -2.8,-2.5 -2.2,-4.9 3.4,-12.9 4.6,-6.7 5,-7.7 3.6,-9 -1.4,-1.4 -2.1,-0.8 -7.2,6.1 -3.1,4.3 -5.6,8.5 -5.7,9.4 -0.1,0.9 -0.4,0.5 -0.9,-0.9 -0.9,-2.8 -1.2,-15.4 -0.3,-13 0.7,2 3.4,5 4.4,5 1.8,0 2,-4.2 0.3,-6.1 -1.7,-1.9 -1.7,-2.3 -0.3,-4.7 2.5,-4.5 4.5,-3.9 11.1,3.3 5.4,5.9 6.3,6.5 7.6,5.1 1.3,-1.3 1,-2 -2.7,-6.5 -10.2,-12.2 -15,-13 -20.8,-3.5 -1,1.6 -1.2,0.2 -1.2,-7.4 -0.1,-6 0.3,-9.1 0.9,-8.7 0.6,0.3 1,1.2 1,2 0,2 4.9,5.5 7.6,5.5 1.2,0 3.6,-1.1 5.1,-2.4 2.7,-2.4 2.7,-2.5 1,-4.3 -1.7,-1.7 -1.9,-1.7 -3.1,-0.1 -1.6,2.2 -3.4,2.3 -5.8,0.1 -3,-2.7 -2.1,-5.2 4.8,-12.4 5.8,-5.9 6.5,-7.1 5.4,-8.4 -1.2,-1.4 -2.1,-0.8 -8.2,5.2 -3.7,3.7 -6.8,7.3 -6.8,8 0,0.7 -0.4,1.3 -0.8,1.3 -1,0 -0.2,-14.3 0.9,-15.4 0.6,-0.6 0.9,-0.4 0.9,0.5 0,0.8 0.6,2.4 1.4,3.4 1.2,1.6 1.6,1.7 3,0.6 1.3,-1.1 1.4,-1.7 0.2,-4 -1.5,-2.9 -1.1,-5 1.2,-6.9 2.8,-2.2 4,-1.3 9.3,6.3 2.9,4.1 5.6,7.5 6,7.5 0.3,0 1.2,-0.6 1.8,-1.4 0.9,-1.1 0,-3 -4.5,-9.2 -3.1,-4.4 -6.1,-8.2 -6.8,-8.6 -2.6,-1.7 -6,-0.7 -9.2,2.8 l -3.4,3.5 0.5,-2.8 c 0.2,-1.5 0.9,-6 1.5,-9.8 2.6,-17.4 8.9,-40.7 15.7,-58.5 3.9,-10.4 14.2,-32.6 16.6,-36.1 1.5,-2 1.6,-1.9 1,3.3 -0.7,7 0.9,11.9 5.2,15.7 5.6,4.9 9.9,4.9 24.5,0.2 6.9,-2.2 14.7,-4.5 17.3,-5.2 l 4.8,-1.2 -0.7,-4.1 c -0.3,-2.2 -0.9,-4.5 -1.1,-4.9 -0.7,-1.2 -5.9,-0.2 -19.8,4 -6.6,2 -12.8,3.6 -13.9,3.5 -5.5,-0.3 -7.7,-8.9 -3.3,-13 1.3,-1.2 3.8,-2.7 5.6,-3.3 3.2,-1.1 3.3,-1.2 2.6,-6.3 -0.4,-2.8 -0.9,-5.3 -1.1,-5.5 -0.9,-1 -9.1,2.6 -12.1,5.2 -1.8,1.6 -3.3,2.6 -3.3,2.2 0,-0.9 14.3,-22.3 17.4,-26 l 2.5,-3 -1.5,4.9 c -1.2,4.4 -1.2,6.5 0.1,17.5 1.6,13 2.9,20.9 3.7,21.6 0.5,0.6 8.1,-1.5 9.1,-2.5 0.5,-0.4 0.4,-3.4 -0.2,-6.6 -0.6,-3.3 -1.5,-10.5 -2.1,-16.2 -0.8,-8.5 -0.7,-10.8 0.4,-13.1 2,-3.9 4,-5.2 7.6,-5.3 4.1,-0.1 6.2,2.1 6.9,7.4 0.6,4.2 0.7,4.3 4.1,4 6.5,-0.6 7,-1 7,-5.5 -0.1,-5.6 -3,-11.9 -7.1,-14.8 -5.6,-3.9 -14.7,-3.2 -21.9,1.8 -1.4,1 0.4,-1.5 4,-5.6 3.6,-4.1 7.9,-9 9.7,-11 l 3.1,-3.6 -1.1,4.2 c -0.8,3.1 -0.8,4.8 0.1,6.8 2.1,4.6 10.2,5.8 10.2,1.5 0,-1.3 -0.8,-2 -2.7,-2.2 -2.3,-0.2 -2.9,-0.9 -3.1,-3.4 -0.4,-4.5 1.6,-5.6 11.8,-6.2 8.3,-0.4 9,-0.6 9,-2.6 0,-2 -0.3,-2.1 -9.7,-1.6 -5.4,0.3 -10.4,0.9 -11.2,1.4 -2.9,1.8 0,-1.3 6.1,-6.5 3.5,-3.1 5.6,-4.5 5,-3.2 -1.8,3.3 -1.5,6.3 0.6,6.3 1.1,0 2.4,-1.3 3.3,-3.3 1.2,-2.7 1.9,-3.2 4.9,-3.2 3.3,0 3.5,0.2 3.5,3.5 -0.1,1.9 -0.4,6.3 -0.8,9.7 -0.8,5.9 -0.7,6.3 1.2,6.3 2.2,0 2.3,-0.2 4,-11.8 1.6,-10.4 -1,-14.1 -9.1,-12.8 l -4,0.7 2.8,-2.4 c 1.6,-1.3 5,-4 7.6,-6.1 l 4.8,-3.8 -1.5,3.5 c -2,4.9 -1.9,7.3 0.6,9.8 1.4,1.4 3,1.9 5.2,1.7 4.4,-0.4 4.9,-3.3 0.7,-4.1 -2.5,-0.6 -3,-1.1 -3,-3.6 0,-4.6 1.8,-5.4 12.7,-5 8.5,0.4 9.8,0.2 10.1,-1.3 0.4,-1.9 -3.7,-2.8 -14.4,-3.1 -3.4,-0.1 -6,-0.5 -5.8,-0.8 0.1,-0.3 3,-2.4 6.3,-4.8 6.1,-4.2 7.4,-4.4 4.6,-0.7 -2.2,2.9 -1.8,4.6 1,4.6 1.5,0 2.5,-0.6 2.5,-1.4 0,-3.9 5.6,-5.9 8.4,-3.1 1.3,1.3 1.2,2.2 -0.5,8.3 -3.5,12 -3.4,11.4 -0.9,11 1.8,-0.2 2.6,-1.7 4.6,-7.8 1.3,-4.1 2.4,-8.7 2.4,-10.3 0,-4.1 -3.2,-6.7 -8.2,-6.7 h -4.3 l 5.5,-3.5 c 14.1,-9 43.3,-21.9 64,-28.4 13,-4 37.8,-9.7 38.7,-8.8 0.2,0.2 -1.5,1.2 -3.8,2.2 -5.9,2.7 -9.1,7.4 -9.7,14.1 -0.7,8.4 1.2,11 14.8,20 6.3,4.2 13.1,9 15.2,10.6 l 3.6,2.8 3.1,-3.7 c 1.7,-2.1 3.1,-4 3.1,-4.4 0,-0.7 -16,-12.6 -21.2,-15.8 -4.2,-2.5 -7.8,-6.6 -7.8,-8.8 0,-2.5 5.6,-7.3 8.5,-7.3 1.5,0 4.5,1 6.6,2.2 l 4,2.2 3.6,-3.6 c 3.3,-3.3 3.5,-3.9 2.2,-5.4 -1.9,-2.3 -8.7,-5.3 -12.4,-5.5 -10.4,-0.3 14.2,-3.3 31,-3.7 3,-0.1 3,-0.1 0.5,1 z"
       id="path42"
       style="fill:currentColor;stroke:none;stroke-width:0.1" />
    <path
       d="m 291.3,88.4 c -4.3,1.9 -6,5.2 -3.5,6.5 1.5,0.8 2.4,0.5 4,-1.4 1.2,-1.4 2.8,-2.5 3.5,-2.5 1.7,0 5.7,2.9 5.7,4.1 0,0.5 -2.2,4.3 -5,8.4 -2.7,4.1 -5,7.6 -5,7.8 0,0.3 0.9,0.7 2,1 1.7,0.4 3.1,-1 7.5,-7.7 3,-4.5 5.5,-9 5.5,-9.9 0,-0.9 -1,-2.8 -2.2,-4.2 -2.8,-3.1 -8.1,-4.1 -12.5,-2.1 z"
       id="path43"
       style="fill:currentColor;stroke:none;stroke-width:0.1" />
    <path
       d="m 399,93.6 c -7.6,5.2 -9,6.8 -9,10.7 0,6.7 9.7,11.2 15,6.9 1.9,-1.5 2,-2 0.8,-3 -1.1,-0.9 -2.2,-0.9 -4.6,0 -2.9,1.1 -3.4,1 -5.4,-1 -1.8,-1.8 -2,-2.6 -1.2,-4 0.9,-1.5 9.2,-7.8 13.4,-10.2 1.2,-0.7 1.2,-1.1 0.1,-2.4 -0.7,-0.9 -1.6,-1.6 -2,-1.5 -0.3,0 -3.5,2 -7.1,4.5 z"
       id="path44"
       style="fill:currentColor;stroke:none;stroke-width:0.1" />
    <path
       d="m 272.4,93.9 c -3.5,1.5 -6.5,6.2 -6.2,9.5 0.2,2.2 1.3,3.7 3.8,5.4 3.2,2.2 3.5,2.2 4.7,0.6 1.8,-2.4 1.7,-2.8 -0.9,-3.9 -3.3,-1.5 -3.5,-5 -0.3,-7.1 2.5,-1.6 2.8,-1.6 11.3,2 8.2,3.4 8.8,3.5 10,1.9 1.2,-1.6 0.6,-2.1 -6,-5.2 -7.9,-3.6 -13.1,-4.6 -16.4,-3.2 z"
       id="path45"
       style="fill:currentColor;stroke:none;stroke-width:0.1" />
  </g>
</svg>
